<ttFont>
          <CharString index="0">
            14 callgsubr
            128 59 callsubr
            hintmask 1011000111000000
            hintmask 0110100111000000
            -92 callgsubr
            hintmask 1011000111010000
            -46 callgsubr
            hintmask 0111000111010000
            15 14 rlineto
            hintmask 1011000111010000
            -107 callgsubr
            97 hlineto
            hintmask 1011000111100000
            -86 callgsubr
            hintmask 1010001111100000
            -55 callsubr
            -186 hlineto
            hintmask 1011000111000000
            75 callsubr
            return
          </CharString>
          <CharString index="1">
            -51 callsubr
            8 callsubr
            hintmask 1011001100000000
            -65 callgsubr
            -431 vlineto
            hintmask 0111001100000000
            -105 callsubr
            hintmask 1011001101000000
            -47 callsubr
            hintmask 0111001101000000
            19 18 15 151 -21 callsubr
            hintmask 1011001101000000
            -106 callgsubr
            28 31 -3 -2 22 hvcurveto
            hintmask 1011001110000000
            -75 callsubr
            hintmask 1010011110000000
            -54 callgsubr
            -224 hlineto
            hintmask 1011001100000000
            65 callsubr
            return
          </CharString>
          <CharString index="2">
            -17 -7 -46 -2 -13 vhcurveto
            -79 -16 5 -50 rlineto
            return
          </CharString>
          <CharString index="3">
            103 -24 callgsubr
            646 78 callgsubr
            283 91 hintmask 10010010
            hintmask 10001010
            645 661 rmoveto
            hintmask 10000110
            -28 callgsubr
            hintmask 10010010
            -90 hlineto
            -5 -54 76 -10 rlineto
            0 -16 -39 -12 -24 vhcurveto
            -115 -234 -101 189 rlineto
            -32 59 -11 49 0 vvcurveto
            hintmask 10100010
            79 20 rlineto
            hintmask 10001010
            -4 49 rlineto
            hintmask 10000110
            0 -122 -5 -25 vhcurveto
            -109 hlineto
            hintmask 10010010
            53 callsubr
            hintmask 01100010
            0 35 -44 21 -41 vhcurveto
            155 -299 rlineto
            -120 -29 callsubr
            98 5 20 80 66 -64 callsubr
            hintmask 10010010
            -90 -88 callsubr
            hintmask 01010010
            106 vlineto
            hintmask 10001010
            140 272 rlineto
            27 52 36 47 0 vvcurveto
            return
          </CharString>
          <CharString index="4">
            376 720 rmoveto
            -221 -113 64 callgsubr
            113 -149 221 86 76 18 16 67 hvcurveto
            147 vlineto
            50 9 103 0 vhcurveto
            -18 17 rlineto
            0 -51 -3 -20 vhcurveto
            -111 hlineto
            -5 -58 106 -8 rlineto
            0 10 -51 -20 vvcurveto
            -68 vlineto
            -11 -6 -28 -6 -26 vhcurveto
            -12 -45 -55 -8 -40 hhcurveto
            -155 -75 137 173 173 75 136 155 hvcurveto
            return
          </CharString>
          <CharString index="5">
            451 0 148 -127 -21 641 78 callgsubr
            1 1008 hintmask 01010010
            hintmask 01001010
            1009 661 rmoveto
            hintmask 01000110
            -28 callgsubr
            hintmask 10010010
            -90 hlineto
            -5 -54 76 -10 rlineto
            0 -4 -37 -7 -26 vhcurveto
            -123 -430 -169 537 rlineto
            -53 hlineto
            -158 -537 -115 385 rlineto
            -15 51 -12 57 0 vvcurveto
            hintmask 01100010
            79 20 rlineto
            hintmask 01001010
            -4 49 rlineto
            hintmask 01000110
            0 -122 -5 -25 vhcurveto
            -109 hlineto
            hintmask 01010010
            53 callsubr
            hintmask 01100010
            0 26 -43 14 -42 vhcurveto
            183 -556 rlineto
            61 hlineto
            152 506 167 -506 rlineto
            61 hlineto
            164 545 rlineto
            12 39 34 60 0 vvcurveto
            return
          </CharString>
          <CharString index="6">
            -1 callsubr
            388 67 hintmask 1001000110000000
            hintmask 1000100110000000
            27 callgsubr
            hintmask 1001000110000000
            -64 callgsubr
            hintmask 1000001110000000
            -20 21 130 callsubr
            -44 -1 rlineto
            -91 callgsubr
            hintmask 1000100110000000
            80 -12 rlineto
            hintmask 0011000110000000
            2 -15 7 -45 -16 vvcurveto
            -431 -29 callsubr
            88 25 callsubr
            43 -64 callsubr
            hintmask 1001000110000000
            -81 -88 callsubr
            hintmask 0011000110000000
            389 vlineto
            hintmask 1001000110000000
            394 -563 rlineto
            60 hlineto
            0 1 264 40 vvcurveto
            231 vlineto
            hintmask 0100010110000000
            40 11 54 4 19 vhcurveto
            79 16 rlineto
            return
          </CharString>
          <CharString index="7">
            -36 -18 -24 -36 -90 callgsubr
            hvcurveto
            return
          </CharString>
          <CharString index="8">
            50 -15 58 619 58 hstemhm
            42 103 352 64 -51 62 hintmask 11110000
            hintmask 11101000
            569 170 rmoveto
            -59 -2 rlineto
            0 0 -37 -2 -10 vhcurveto
            -10 -7 -23 -7 -23 vhcurveto
            -13 -42 -53 -9 -41 hhcurveto
            -143 -70 137 173 173 70 136 144 hvcurveto
            hintmask 11110000
            38 49 -10 -13 39 hvcurveto
            6 -20 6 -21 -9 vvcurveto
            -47 vlineto
            59 -4 10 148 rlineto
            16 -63 -62 18 -82 hhcurveto
            -210 -107 64 callgsubr
            107 -149 210 hvcurveto
            hintmask 11101000
            81 72 18 16 63 hvcurveto
            return
          </CharString>
          <CharString index="9">
            -20 90 callsubr
            hintmask 1001001100000000
            hintmask 1000101110000000
            529 489 rmoveto
            hintmask 1000011110000000
            -5 callgsubr
            hintmask 1001001110000000
            -28 -48 1 0 hvcurveto
            -3 -45 51 -8 rlineto
            0 -9 -27 -7 -13 vhcurveto
            -88 -172 -80 147 rlineto
            hintmask 1010001100000000
            -20 33 -7 32 0 vvcurveto
            55 12 rlineto
            hintmask 1000101100000000
            -4 44 rlineto
            hintmask 1000011100000000
            97 callgsubr
            -27 105 callsubr
            hintmask 0101001100000000
            -85 callsubr
            hintmask 1001001100000000
            4 callgsubr
            hintmask 0101001100000000
            65 vlineto
            hintmask 1001001100000000
            21 callgsubr
            return
          </CharString>
          <CharString index="10">
            347 -24 callgsubr
            22 -21 252 52 30 52 266 57 96 callsubr
            hstemhm
            699 49 21 54 -9 47 hintmask 1001010010000000
            hintmask 1001000111000000
            820 697 rmoveto
            -54 callgsubr
            hintmask 1001010010000000
            -299 hlineto
            -91 callgsubr
            hintmask 0101001010000000
            78 -12 -234 -491 -7 -15 -31 -45 -23 -32 rlinecurve
            -60 -16 5 -50 rlineto
            0 73 25 callsubr
            51 -64 callsubr
            hintmask 1001010010000000
            -82 7 5 16 3 16 4 9 rlinecurve
            hintmask 0101010010000000
            69 146 rlineto
            hintmask 1001010010000000
            214 hlineto
            18 -118 rlineto
            3 -20 2 -23 -26 vvcurveto
            -82 23 callsubr
            hintmask 0011010010000000
            218 hlineto
            75 callgsubr
            rlineto
            hintmask 1001010010100000
            -4 callgsubr
            -9 -36 -4 -15 rlinecurve
            hintmask 0011010010100000
            -2 -7 -9 -16 -10 -14 rrcurveto
            -4 -22 -35 -5 -30 hhcurveto
            -122 hlineto
            -25 117 rlineto
            hintmask 1001110010100000
            -24 152 rlineto
            2 26 30 2 11 hhcurveto
            28 37 callsubr
            -48 hlineto
            -12 -36 2 2 -28 hvcurveto
            -24 155 -5 37 -4 48 -2 22 rlinecurve
            181 124 callgsubr
            -13 -59 callsubr
            -577 -262 rmoveto
            hintmask 1001010011000000
            135 285 7 -28 39 -254 rlineto
            return
          </CharString>
          <CharString index="11">
            -20 hstemhm
            10 790 -193 191 hintmask 0101001100000000
            hintmask 0100101010000000
            800 489 rmoveto
            hintmask 0100011010000000
            -5 callgsubr
            hintmask 1001001010000000
            -28 -47 1 0 hvcurveto
            -4 -45 56 -8 rlineto
            0 -1 -22 -5 -18 vhcurveto
            -91 -309 -122 383 rlineto
            -56 hlineto
            -117 -383 -84 284 rlineto
            hintmask 0110001100000000
            -9 31 -6 34 0 vvcurveto
            58 12 rlineto
            hintmask 0100101100000000
            -3 44 rlineto
            hintmask 0100011100000000
            97 callgsubr
            -28 105 callsubr
            hintmask 0101001010000000
            -4 -45 50 -7 rlineto
            0 17 -27 10 -28 vhcurveto
            143 -423 rlineto
            61 hlineto
            114 356 120 -356 rlineto
            62 hlineto
            130 408 rlineto
            10 30 24 41 0 vvcurveto
            return
          </CharString>
          <CharString index="12">
            -17 15 rlineto
            0 -47 -3 -19 vhcurveto
            -87 hlineto
            -4 -55 83 -6 rlineto
            0 8 -35 -15 vvcurveto
            -51 vlineto
            -7 -4 -18 -4 -17 vhcurveto
            -7 -33 -36 -5 -30 hhcurveto
            -116 -52 99 124 124 53 97 115 hvcurveto
            return
          </CharString>
          <CharString index="13">
            hstemhm
            15 511 -510 181 121 205 hintmask 10111100
            hintmask 10111011
            -75 callgsubr
            hintmask 01111010
            -48 callsubr
            hintmask 10111011
            -82 callgsubr
            hintmask 01111001
            -55 callgsubr
            hintmask 10111001
            return
          </CharString>
          <CharString index="14">
            2 17 17 1 9 hhcurveto
            53 hlineto
            20 60 -6 0 hvcurveto
            9 -67 48 6 rlineto
            0 -3 59 50 vvcurveto
            20 1 return
          </CharString>
          <CharString index="15">
            533 rmoveto
            0 -51 -4 -70 vhcurveto
            hintmask 10101100
            -23 -64 -84 callsubr
            hintmask 10011100
            57 -9 rlineto
            hintmask 01101100
            -94 callgsubr
            hintmask 10101100
            -63 -42 callsubr
            hintmask 01101100
            272 vlineto
            hintmask 10101100
            -3 callsubr
            57 5 rlineto
            return
          </CharString>
          <CharString index="16">
            vhcurveto
            -58 -10 4 -44 rlineto
            0 65 4 22 118 callsubr
            rlineto
            return
          </CharString>
          <CharString index="17">
            -171 87 -110 171 171 88 110 171 vhcurveto
            267 vlineto
            43 5 53 2 15 vhcurveto
            79 7 rlineto
            return
          </CharString>
          <CharString index="18">
            -20 hstemhm
            52 62 -59 95 165 97 -84 57 hintmask 11101100
            hintmask 11110100
            58 154 rmoveto
            -12 -127 rlineto
            0 71 -38 104 106 85 53 101 vhcurveto
            hintmask 11101100
            4 callsubr
            hintmask 11101010
            -71 callsubr
            hintmask 11101100
            5 callgsubr
            hintmask 11110100
            -6 callgsubr
            return
          </CharString>
          <CharString index="19">
            7 rlineto
            -2 14 -5 50 42 vvcurveto
            return
          </CharString>
          <CharString index="20">
            -128 70 -83 139 138 72 83 128 vhcurveto
            202 vlineto
            26 4 38 2 11 vhcurveto
            58 5 rlineto
            return
          </CharString>
          <CharString index="21">
            -20 hstemhm
            38 100 260 55 -44 52 hintmask 11111000
            hintmask 11110100
            -81 callgsubr
            hintmask 11111000
            30 33 -6 -8 31 hvcurveto
            5 -13 5 -16 -6 vvcurveto
            -39 vlineto
            51 -3 8 120 rlineto
            12 -49 -49 13 -65 hhcurveto
            -170 -86 -112 -164 -163 86 -112 170 hvcurveto
            hintmask 11110100
            64 57 13 12 49 hvcurveto
            return
          </CharString>
          <CharString index="22">
            -4 -45 50 -7 rlineto
            0 27 -29 14 -26 vhcurveto
            127 -233 rlineto
            -80 vlineto
            -13 -6 -38 -1 -9 -91 callsubr
            return
          </CharString>
          <CharString index="23">
            -30 callsubr
            -4 -47 rlineto
            return
          </CharString>
          <CharString index="24">
            rmoveto
            -229 -100 -80 callgsubr
          </CharString>
          <CharString index="25">
            hintmask 10101000
            688 54 rmoveto
            -70 7 -24 20 -38 32 -15 16 rlinecurve
            -69 80 -72 81 -70 80 132 176 rcurveline
            30 30 46 44 26 24 76 7 rcurveline
            hintmask 10011000
            94 callgsubr
            -47 -5 -80 vhcurveto
            hintmask 10101000
            -20 -86 5 0 hvcurveto
            -5 -54 rlineto
            hintmask 01011000
            54 -11 -39 -68 -182 -224 rlineto
            0 144 -165 21 -24 vhcurveto
            17 -22 37 -57 16 -26 -59 -14 rcurveline
            5 -50 rlineto
            0 108 25 callsubr
            61 -5 0 vhcurveto
            -379 715 rmoveto
            hintmask 10101000
            0 -57 -5 -80 85 callgsubr
            vhcurveto
            hintmask 01011000
            -5 -54 -61 callsubr
            hintmask 10101000
            -431 vlineto
            -17 -7 -46 -2 -13 vhcurveto
            hintmask 01011000
            -79 -88 callgsubr
            -39 callsubr
            73 callsubr
            48 callsubr
            hintmask 10101000
            78 7 rlineto
            return
          </CharString>
          <CharString index="26">
            48 callgsubr
            3 -44 rlineto
            0 65 4 23 return
          </CharString>
          <CharString index="27">
            -20 hstemhm
            108 67 289 68 hintmask 1000010111000000
            hintmask 1000100111000000
            27 callsubr
            hintmask 1000010111000000
            -69 2 -4 -49 rlineto
            hintmask 1001000111000000
            -53 callsubr
            hintmask 1000001111000000
            -15 15 rlineto
            hintmask 1000010111000000
            -49 hlineto
            -23 -64 -84 callsubr
            hintmask 1000100111000000
            59 -9 rlineto
            hintmask 0100010111000000
            -72 callgsubr
            hintmask 1000010111000000
            -59 5 rlineto
            -1 10 -5 39 34 vvcurveto
            hintmask 0100010111000000
            253 vlineto
            hintmask 1000010111000000
            2 callgsubr
            hintmask 0010100111000000
            24 7 39 3 13 vhcurveto
            58 9 rlineto
            return
          </CharString>
          <CharString index="28">
            rmoveto
            -33 -32 166 -169 166 169 -33 32 -74 -61 -59 -43 -25 18 -27 19 -7 6 rlinecurve
            endchar
          </CharString>
          <CharString index="29">
            35 -24 callgsubr
            654 56 10 -20 hstemhm
            13 54 185 91 184 54 hintmask 10100110
            585 553 rmoveto
            hintmask 10010110
            -7 144 -54 callgsubr
            hintmask 10101110
            -295 3 callsubr
            hintmask 10011110
            -19 callsubr
            hintmask 01101110
            2 22 31 3 28 hhcurveto
            63 hlineto
            2 -19 7 -47 -15 vvcurveto
            -431 -29 callsubr
            98 5 20 80 66 -64 callsubr
            hintmask 10100110
            -90 -88 callsubr
            hintmask 01100110
            371 vlineto
            hintmask 10100110
            -50 callsubr
            return
          </CharString>
          <CharString index="30">
            161 -6 59 -53 53 284 43 275 60 -5 76 callgsubr
            359 99 hintmask 10110110
            -65 callgsubr
            -188 -88 -43 88 -200 vlineto
            -105 callsubr
            hintmask 01110110
            0 97 5 21 vhcurveto
            60 69 -6 40 hhcurveto
            hintmask 10110110
            216 129 145 213 223 -122 140 -223 -66 -57 -8 -2 -64 hvcurveto
            -34 2 -64 3 0 vvcurveto
            hintmask 10101110
            172 -373 rmoveto
            138 hlineto
            5 43 rlineto
            -143 158 hlineto
            40 5 53 2 19 vhcurveto
            hintmask 10110110
            3 25 36 2 46 hhcurveto
            167 78 -136 -167 -165 -78 -134 -167 -44 -37 2 2 -26 hvcurveto
            -1 4 -6 58 48 vvcurveto
            endchar
          </CharString>
          <CharString index="31">
            45 32 -4 -18 42 hvcurveto
            6 -23 7 -24 -9 vvcurveto
            -44 vlineto
            59 -6 14 151 rlineto
            16 -64 -73 16 -65 hhcurveto
            -124 -93 -65 -120 hvcurveto
            return
          </CharString>
          <CharString index="32">
            -70 callsubr
            -7 136 rlineto
            return
          </CharString>
          <CharString index="33">
            -22 vvcurveto
            -300 -68 callsubr
            return
          </CharString>
          <CharString index="34">
            11 -5 52 -47 47 201 41 192 51 -47 51 hstemhm
            106 87 257 95 hintmask 10101110
            hintmask 10110110
            42 486 rmoveto
            57 -9 rlineto
            1 -6 6 -39 -22 vvcurveto
            -121 -64 -41 64 -138 vlineto
            -13 -6 -41 -1 -6 vhcurveto
            -59 -10 4 -44 rlineto
            hintmask 01101110
            24 callgsubr
            46 59 -5 37 hhcurveto
            hintmask 10101110
            172 99 110 159 165 -95 107 -176 -47 -59 -6 -1 -46 hvcurveto
            -29 1 -48 3 0 vvcurveto
            hintmask 10110110
            148 -285 rmoveto
            96 hlineto
            4 41 rlineto
            -100 116 hlineto
            hintmask 10101110
            23 3 38 2 14 vhcurveto
            3 19 25 2 29 hhcurveto
            125 54 -100 -120 -121 -54 -97 -126 -30 -26 1 1 -16 hvcurveto
            -1 6 -4 43 35 vvcurveto
            endchar
          </CharString>
          <CharString index="35">
            -2 -12 -6 -24 -3 -12 -1 -5 -7 -12 -8 -12 rrcurveto
            -3 -16 -26 -4 -23 hhcurveto
            -86 hlineto
            -2 13 -4 38 31 vvcurveto
            272 59 callgsubr
            58 5 rlineto
            return
          </CharString>
          <CharString index="36">
            33 22 -5 -12 28 hvcurveto
            5 -16 5 -14 -6 vvcurveto
            -41 vlineto
            52 -5 11 126 rlineto
            13 -51 -59 12 -52 hhcurveto
            -100 -74 -52 -91 hvcurveto
            return
          </CharString>
          <CharString index="37">
            10 -13 9 -14 -59 callsubr
            return
          </CharString>
          <CharString index="38">
            41 -40 -66 callsubr
            return
          </CharString>
          <CharString index="39">
            vlineto
            -81 callsubr
            vhcurveto
            return
          </CharString>
          <CharString index="40">
            -26 0 57 -40 -21 648 -10 callgsubr
            248 47 hintmask 10010100
            hintmask 10001100
            302 -30 callgsubr
            hintmask 10010100
            -91 callgsubr
            hintmask 10001100
            17 callsubr
            hintmask 01100100
            81 callgsubr
            -431 -43 callsubr
            hintmask 10010110
            75 callgsubr
            15 151 rlineto
            hintmask 01010110
            -49 callgsubr
            hintmask 10010110
            -28 callsubr
            return
          </CharString>
          <CharString index="41">
            -25 callgsubr
            36 -21 rlineto
            10 callgsubr
            return
          </CharString>
          <CharString index="42">
            vhcurveto
            -58 60 callgsubr
            return
          </CharString>
          <CharString index="43">
            -5 0 vhcurveto
            7 59 rlineto
            return
          </CharString>
          <CharString index="44">
            -49 7 rlineto
            0 -23 -29 -7 -6 vhcurveto
            -12 -10 -74 -56 0 vvcurveto
            20 -33 71 32 rlineto
            -210 vlineto
            -12 -5 -35 -3 vvcurveto
            -60 -8 3 -43 rlineto
            0 58 3 21 62 41 -3 0 vhcurveto
            return
          </CharString>
          <CharString index="45">
            -76 0 51 -33 -21 250 50 182 50 -48 47 5 -20 23 -20 return
          </CharString>
          <CharString index="46">
            77 -12 rlineto
            81 callgsubr
            return
          </CharString>
          <CharString index="47">
            -229 444 53 -47 43 219 45 hstemhm
            26 75 -56 46 110 71 hintmask 01101100
            214 450 rmoveto
            69 31 -3 0 hvcurveto
            4 42 -40 41 callsubr
            78 vlineto
            79 -39 39 -79 -32 -44 -6 -10 -37 vhcurveto
            9 -95 42 2 -1 28 5 25 rlineto
            7 14 22 4 18 hhcurveto
            34 17 -21 -47 hvcurveto
            -19 vlineto
            hintmask 10110100
            -93 -15 rlineto
            -55 -9 -27 -28 -46 vvcurveto
            -51 35 -32 56 39 34 19 33 18 vhcurveto
            -7 93 rmoveto
            -41 vlineto
            -30 -6 -25 -21 -30 hhcurveto
            -26 -13 14 28 22 12 12 24 5 hvcurveto
            endchar
          </CharString>
          <CharString index="48">
            1 -7 4 -15 5 -23 2 -16 58 5 rcurveline
            return
          </CharString>
          <CharString index="49">
            rmoveto
            -174 -107 -70 callgsubr
          </CharString>
          <CharString index="50">
            49 -3 1 11 4 26 3 11 rlinecurve
            5 6 9 6 8 vhcurveto
            2 17 24 2 22 hhcurveto
            45 hlineto
            2 -13 5 -35 -21 vvcurveto
            return
          </CharString>
          <CharString index="51">
            43 55 -11 -13 44 hvcurveto
            6 -20 6 -21 -8 vvcurveto
            -45 vlineto
            58 -6 11 148 rlineto
            return
          </CharString>
          <CharString index="52">
            -15 13 rlineto
            0 -73 -7 -16 vhcurveto
            return
          </CharString>
          <CharString index="53">
            42 5 50 2 14 vhcurveto
            return
          </CharString>
          <CharString index="54">
            58 -6 rlineto
            2 -13 5 -40 -18 vvcurveto
            -263 vlineto
            -194 258 rlineto
            -11 16 -62 98 0 vvcurveto
            return
          </CharString>
          <CharString index="55">
            rmoveto
            -55 34 -33 41 -24 vhcurveto
            hintmask 11100100
            -41 -23 -48 -38 -52 vvcurveto
            -76 71 -33 77 77 70 34 74 60 -43 33 -47 25 vhcurveto
            hintmask 11101000
            35 22 41 36 49 vvcurveto
            66 -65 37 -68 vhcurveto
            hintmask 11010100
            -70 -64 -38 -64 hvcurveto
            hintmask 11100100
            62 -225 rmoveto
            40 30 30 26 20 vhcurveto
            46 -25 41 -22 -45 vvcurveto
            -41 -30 -26 -41 -43 -29 27 42 vhcurveto
            hintmask 11011000
            132 224 rmoveto
            -37 -23 -30 -20 -19 vhcurveto
            -42 22 -35 21 45 vvcurveto
            35 29 25 31 34 26 -25 -37 vhcurveto
            endchar
          </CharString>
          <CharString index="56">
            28 0 57 -40 -21 342 56 255 56 96 callsubr
            return
          </CharString>
          <CharString index="57">
            38 5 53 2 20 vhcurveto
            65 1 callsubr
            -31 2 -16 rrcurveto
            return
          </CharString>
          <CharString index="58">
            -43 -99 -63 -17 4 -49 rlineto
            0 98 5 37 vhcurveto
            return
          </CharString>
          <CharString index="59">
            -33 -70 -44 15 callsubr
            41 vhcurveto
            return
          </CharString>
          <CharString index="60">
            104 callsubr
            237 16 callgsubr
            return
          </CharString>
          <CharString index="61">
            61 -58 57 6 -20 return
          </CharString>
          <CharString index="62">
            rmoveto
            -52 -45 -8 -21 -61 hvcurveto
            13 -145 55 3 -2 45 rlineto
            7 3 15 7 28 vhcurveto
            16 25 20 6 34 hhcurveto
            69 39 -44 -79 -86 -63 -49 -130 -16 hvcurveto
            14 -48 rlineto
            0 30 3 39 vhcurveto
            hintmask 11101000
            82 55 -49 -74 -98 -122 -90 -185 -30 hvcurveto
            18 -53 rlineto
            228 25 156 112 136 vvcurveto
            82 -53 59 -94 26 vhcurveto
            hintmask 11110000
            76 32 43 59 73 vvcurveto
            106 -70 57 -129 vhcurveto
            endchar
          </CharString>
          <CharString index="63">
            1 -11 6 -34 -74 callsubr
            return
          </CharString>
          <CharString index="64">
            -29 callsubr
            98 5 20 vhcurveto
            211 hlineto
            return
          </CharString>
          <CharString index="65">
            5 rlineto
            -12 callsubr
            return
          </CharString>
          <CharString index="66">
            hintmask 10101010
            hintmask 10011010
            260 533 rmoveto
            0 -51 -4 -70 vhcurveto
            hintmask 10101010
            -23 -64 -84 callsubr
            hintmask 10011010
            57 -9 rlineto
            hintmask 01101010
            -94 callgsubr
            hintmask 10101010
            -63 -42 callsubr
            hintmask 01101010
            272 vlineto
            hintmask 10101010
            -3 callsubr
            57 5 rlineto
            return
          </CharString>
          <CharString index="67">
            -197 -24 callgsubr
            649 -46 callsubr
            return
          </CharString>
          <CharString index="68">
            80 66 -5 0 vhcurveto
            return
          </CharString>
          <CharString index="69">
            rmoveto
            -228 -300 38 -46 rlineto
            154 hlineto
            hintmask 10011000
            -28 vlineto
            -11 -5 -30 -1 -3 vhcurveto
            -68 -9 rlineto
            hintmask 00111000
            3 -42 rlineto
            0 60 3 21 vhcurveto
            hintmask 01011000
            60 45 -3 0 hvcurveto
            4 47 rlineto
            hintmask 00111000
            -48 4 rlineto
            hintmask 01011000
            -45 callgsubr
          </CharString>
          <CharString index="70">
            -50 -11 57 298 59 hstem
            42 94 258 95 vstem
            285 403 rmoveto
            -33 -46 -16 0 hvcurveto
            6 -48 rlineto
            0 44 5 19 79 40 -63 -81 -80 -45 -74 -79 -94 -40 104 96 171 77 203 261 76 vhcurveto
            -12 51 rlineto
            -286 -54 -134 -236 -211 vvcurveto
            -150 80 -107 148 121 98 89 122 129 -78 74 -126 vhcurveto
            endchar
          </CharString>
          <CharString index="71">
            36 -7 -28 -46 -137 -168 rlineto
            0 109 -124 16 -18 vhcurveto
            13 -16 26 -38 13 -21 -41 -8 rcurveline
            112 callgsubr
            69 119 callsubr
            -303 537 rmoveto
            return
          </CharString>
          <CharString index="72">
            31 11 -22 -26 -25 -11 -22 -31 -29 -12 22 25 26 12 22 29 hvcurveto
            endchar
          </CharString>
          <CharString index="73">
            104 0 59 -43 -21 237 52 431 -20 return
          </CharString>
          <CharString index="74">
            167 -15 56 callsubr
            return
          </CharString>
          <CharString index="75">
            -264 402 rmoveto
            65 -193 -130 -3 rlineto
            return
          </CharString>
          <CharString index="76">
            -44 callsubr
            176 hlineto
            return
          </CharString>
          <CharString index="77">
            4 0 hvcurveto
            return
          </CharString>
          <CharString index="78">
            vlineto
            -105 callsubr
            0 return
          </CharString>
          <CharString index="79">
            -118 hlineto
            -2 15 -5 54 41 vvcurveto
            10 callsubr
            return
          </CharString>
          <CharString index="80">
            rmoveto
            -192 -160 33 -41 74 61 rlineto
            16 11 118 67 0 vvcurveto
            return
          </CharString>
          <CharString index="81">
            vlineto
            -52 callgsubr
            return
          </CharString>
          <CharString index="82">
            rmoveto
            0 -26 -51 -27 vhcurveto
            return
          </CharString>
          <CharString index="83">
            0 47 -30 -21 return
          </CharString>
          <CharString index="84">
            rmoveto
            23 28 5 9 21 hvcurveto
            -7 49 rlineto
            -3 -21 -13 -1 -22 hhcurveto
            -77 -49 65 77 82 40 74 78 93 41 -107 -97 -171 -67 -201 -259 -84 hvcurveto
            14 -52 rlineto
            288 62 122 230 216 vvcurveto
            152 -81 109 -149 -122 -95 -89 -124 -125 89 -76 125 vhcurveto
            endchar
          </CharString>
          <CharString index="85">
            122 callgsubr
            -236 hmoveto
            -20 callsubr
            -36 18 -23 36 return
          </CharString>
          <CharString index="86">
            -55 5 -2 -16 -10 -36 -3 -15 rlinecurve
            return
          </CharString>
          <CharString index="87">
            -36 -18 -24 -36 return
          </CharString>
          <CharString index="88">
            -7 -144 58 -5 2 16 5 31 4 15 rlinecurve
            1 7 9 14 10 13 rrcurveto
            return
          </CharString>
          <CharString index="89">
            rmoveto
            204 -163 161 -203 -200 -165 -163 -202 -206 167 -159 198 202 164 167 198 vhcurveto
            -45 hmoveto
            -176 -143 -145 -178 -176 -145 145 176 180 145 141 176 177 144 -146 -175 vhcurveto
            return
          </CharString>
          <CharString index="90">
            rmoveto
            -70 hlineto
            -19 -18 -15 -329 37 -21 rlineto
            10 45 33 3 26 hhcurveto
            102 56 -46 -85 -129 -138 -66 -172 -23 hvcurveto
            18 -53 rlineto
            220 22 167 94 165 vvcurveto
            124 -94 64 -144 -33 -29 -4 -5 -25 vhcurveto
            3 90 8 127 0 vvcurveto
            65 hlineto
            30 195 23 0 hvcurveto
            return
          </CharString>
          <CharString index="91">
            0 -57 -5 -80 vhcurveto
            return
          </CharString>
          <CharString index="92">
            0 57 -43 -21 23 -21 649 61 -61 66 -53 53 -25 20 return
          </CharString>
          <CharString index="93">
            7 15 15 4 19 hhcurveto
            38 22 -23 -41 -53 -38 -32 -76 -11 hvcurveto
            9 -38 rlineto
            hintmask 11010000
            0 21 2 21 48 28 -27 -45 -63 -72 -52 -111 -16 vhcurveto
            12 -39 rlineto
            149 13 106 73 88 vvcurveto
            49 -37 40 -55 13 vhcurveto
            hintmask 11100000
            47 22 27 36 42 vvcurveto
            70 -48 37 -88 vhcurveto
            return
          </CharString>
          <CharString index="94">
            rmoveto
            -41 -23 -29 -41 -41 23 -28 41 41 23 28 41 44 -24 26 -40 hvcurveto
            return
          </CharString>
          <CharString index="95">
            -2 11 -4 38 34 vvcurveto
            return
          </CharString>
          <CharString index="96">
            50 callsubr
            -59 -58 callgsubr
            23 70 56 -4 0 vhcurveto
            5 49 rlineto
            return
          </CharString>
          <CharString index="97">
            -24 callsubr
            483 49 5 -20 return
          </CharString>
          <CharString index="98">
            rmoveto
            19 16 3 5 12 hvcurveto
            -4 38 rlineto
            -1 -7 -12 -1 -12 hhcurveto
            -39 -26 38 46 45 19 44 46 51 22 -59 -57 -107 -40 -129 -164 -47 hvcurveto
            11 -38 rlineto
            191 36 85 151 134 vvcurveto
            95 -55 68 -101 -82 -65 -59 -77 -80 54 -48 81 vhcurveto
            endchar
          </CharString>
          <CharString index="99">
            112 callgsubr
            64 4 23 70 80 callsubr
            -63 5 rlineto
            -1 11 -5 63 callgsubr
            return
          </CharString>
          <CharString index="100">
            -39 -22 -28 -39 -39 22 -27 39 39 22 27 39 42 -23 25 -38 hvcurveto
            return
          </CharString>
          <CharString index="101">
            -49 -46 13 14 -35 hvcurveto
            -5 22 -6 32 12 vvcurveto
            48 vlineto
            return
          </CharString>
          <CharString index="102">
            -217 111 -150 217 return
          </CharString>
          <CharString index="103">
            66 callsubr
            -47 rlineto
            return
          </CharString>
          <CharString index="104">
            25 4 36 2 11 vhcurveto
            return
          </CharString>
          <CharString index="105">
            604 82 callgsubr
            17 326 hintmask 01100000
            hintmask 10100000
            307 723 -25 callsubr
            hintmask 01100000
            -40 -75 -69 callsubr
            hintmask 10100000
            40 74 -61 callgsubr
          </CharString>
          <CharString index="106">
            201 -15 callsubr
            hstemhm
            130 67 return
          </CharString>
          <CharString index="107">
            -215 442 45 225 45 hstem
            24 81 135 81 vstem
            321 599 rmoveto
            99 -52 59 -97 -97 -51 -59 -99 -97 51 -60 97 97 52 60 97 vhcurveto
            -81 hmoveto
            -70 -18 -42 -50 -49 -18 42 70 70 18 43 49 50 18 -43 -70 vhcurveto
            endchar
          </CharString>
          <CharString index="108">
            hlineto
            12 callgsubr
            return
          </CharString>
          <CharString index="109">
            -8 17 29 -10 37 hhcurveto
            59 48 35 54 54 -42 32 -59 1 hvcurveto
            return
          </CharString>
          <CharString index="110">
            hlineto
            -20 -94 10 0 hvcurveto
            -19 -18 rlineto
            return
          </CharString>
          <CharString index="111">
            171 -262 -12 111 vvcurveto
            49 37 26 48 vhcurveto
            return
          </CharString>
          <CharString index="112">
            227 -346 -12 157 vvcurveto
            74 52 37 62 vhcurveto
            return
          </CharString>
          <CharString index="113">
            hlineto
            -27 callgsubr
            return
          </CharString>
          <CharString index="114">
            173 98 110 159 165 -95 107 -176 hvcurveto
            -3 -51 rmoveto
            125 54 -100 -120 -121 -53 -97 -126 -30 -27 1 1 -16 hvcurveto
            -1 6 -4 43 35 vvcurveto
            272 vlineto
            23 4 38 1 14 vhcurveto
            3 19 25 2 29 hhcurveto
            return
          </CharString>
          <CharString index="115">
            16 callsubr
            -30 47 return
          </CharString>
          <CharString index="116">
            94 callgsubr
            -64 -5 -80 vhcurveto
            return
          </CharString>
          <CharString index="117">
            371 -26 callsubr
            return
          </CharString>
          <CharString index="118">
            42 27 35 42 18 vhcurveto
            -7 24 rlineto
            -84 -18 -46 -79 -70 vvcurveto
            -44 21 -40 44 37 27 32 37 36 -25 27 -36 vhcurveto
            return
          </CharString>
          <CharString index="119">
            0 18 -127 1 -19 vhcurveto
            -1 -94 58 -3 13 243 rlineto
            return
          </CharString>
          <CharString index="120">
            -34 23 -14 10 -4 vhcurveto
            return
          </CharString>
          <CharString index="121">
            rmoveto
            -7 -114 43 -2 4 30 2 7 4 8 4 9 rlinecurve
            1 13 24 2 8 hhcurveto
            102 hlineto
            -6 -30 -18 -53 -5 -10 -141 -296 rcurveline
            67 -22 193 442 -11 35 rlineto
            -187 hlineto
            -15 -62 5 0 hvcurveto
            endchar
          </CharString>
          <CharString index="122">
            -10 3 -2 callgsubr
            return
          </CharString>
          <CharString index="123">
            22 callgsubr
            180 49 21 54 return
          </CharString>
          <CharString index="124">
            77 -12 rlineto
            return
          </CharString>
          <CharString index="125">
            rmoveto
            -7 -112 43 -3 4 30 9 23 rlineto
            1 13 22 2 8 hhcurveto
            99 hlineto
            -7 -29 -18 -51 -4 -10 -137 -284 rcurveline
            67 -22 187 427 -10 35 rlineto
            -183 hlineto
            -14 -61 5 0 hvcurveto
            endchar
          </CharString>
          <CharString index="126">
            rmoveto
            -113 45 -98 115 116 44 98 113 114 -44 98 -116 -115 -45 -98 -114 vhcurveto
            236 hmoveto
            -76 -12 -89 -64 -63 -12 89 76 77 12 89 63 64 12 -89 -77 vhcurveto
            endchar
          </CharString>
          <CharString index="127">
            57 callsubr
            12 120 rlineto
            return
          </CharString>
          <CharString index="128">
            -21 163 47 331 -20 return
          </CharString>
          <CharString index="129">
            rmoveto
            5 53 rlineto
            -322 -53 hlineto
            endchar
          </CharString>
          <CharString index="130">
            -88 callgsubr
            vhcurveto
            return
          </CharString>
          <CharString index="131" raw="1">
            74e00a0b   
          </CharString>
          <CharString index="132">
            5 20 80 return
          </CharString>
          <CharString index="133">
            46 -10 rlineto
            0 7 -38 -13 vvcurveto
            -113 vlineto
            -1 -13 -5 -36 0 vvcurveto
            -44 -8 106 callgsubr
            43 3 22 61 37 -3 0 vhcurveto
            3 42 -43 41 callsubr
            return
          </CharString>
          <CharString index="134">
            596 533 rmoveto
            0 -62 -4 -62 vhcurveto
            return
          </CharString>
          <CharString index="135">
            -7 callsubr
            198 hmoveto
            -7 callsubr
            return
          </CharString>
          <CharString index="136">
            -84 callgsubr
            endchar
          </CharString>
          <CharString index="137">
            -238 hlineto
            -16 -73 7 0 hvcurveto
            -15 -13 rlineto
            return
          </CharString>
          <CharString index="138">
            -34 54 callsubr
            return
          </CharString>
          <CharString index="139">
            -49 4 rlineto
            -1 3 -5 37 28 vvcurveto
            144 vlineto
            30 5 113 0 vhcurveto
            return
          </CharString>
          <CharString index="140">
            3 0 vvcurveto
            -4 -47 57 -9 rlineto
            1 return
          </CharString>
          <CharString index="141">
            -235 42 -21 -21 132 44 return
          </CharString>
          <CharString index="142">
            -54 callsubr
            78 7 return
          </CharString>
          <CharString index="143">
            1 -11 6 -34 -22 vvcurveto
            -120 vlineto
            -245 -3 rlineto
            118 59 callgsubr
            58 5 -3 51 rlineto
            0 -51 -4 -71 vhcurveto
            return
          </CharString>
          <CharString index="144">
            hlineto
            20 60 -6 0 hvcurveto
            9 -67 48 6 rlineto
            0 -3 59 50 vvcurveto
            20 1 60 0 vhcurveto
            -46 5 -9 -66 rlineto
            0 -40 -9 -20 vhcurveto
            return
          </CharString>
          <CharString index="145">
            -30 1 -47 33 callsubr
            -6 6 -39 54 callsubr
            -6 -41 -1 -6 -65 callsubr
            return
          </CharString>
          <CharString index="146">
            238 344 rmoveto
            -49 4 rlineto
            -1 3 -5 37 28 vvcurveto
            144 vlineto
            return
          </CharString>
          <CharString index="147">
            49 5 66 callgsubr
            return
          </CharString>
          <CharString index="148">
            4 rlineto
            0 -6 38 30 vvcurveto
            return
          </CharString>
          <CharString index="149">
            -20 callsubr
            -36 18 -23 36 36 18 23 36 return
          </CharString>
          <CharString index="150">
            58 16 63 59 59 16 -63 -57 -58 -16 -63 -59 return
          </CharString>
          <CharString index="151">
            -50 callsubr
            endchar
          </CharString>
          <CharString index="152">
            -26 -15 -53 0 vhcurveto
            return
          </CharString>
          <CharString index="153">
            -190 -360 -6 -11 -23 -32 -18 -24 rlinecurve
            -45 -10 112 callgsubr
            52 4 22 63 43 -4 0 vhcurveto
            5 49 rlineto
            return
          </CharString>
          <CharString index="154">
            -51 30 -34 60 60 29 34 51 return
          </CharString>
          <CharString index="155">
            371 vlineto
            -54 callsubr
            return
          </CharString>
          <CharString index="156">
            10 -13 9 -14 1 -7 4 -15 5 return
          </CharString>
          <CharString index="157">
            -13 -6 -38 -1 -9 vhcurveto
            return
          </CharString>
          <CharString index="158">
            -40 callgsubr
            hvcurveto
            return
          </CharString>
          <CharString index="159">
            rmoveto
            42 callsubr
            hvcurveto
            return
          </CharString>
          <CharString index="160">
            -5 -54 66 -10 rlineto
            return
          </CharString>
          <CharString index="161">
            -22 51 callgsubr
            return
          </CharString>
          <CharString index="162">
            -28 callsubr
            endchar
          </CharString>
          <CharString index="163">
            64 595 -46 callsubr
            return
          </CharString>
          <CharString index="164">
            16 73 -3 0 hvcurveto
            15 14 return
          </CharString>
          <CharString index="165">
            -65 callsubr
            0 return
          </CharString>
          <CharString index="166">
            42 15 46 -27 41 return
          </CharString>
          <CharString index="167">
            167 0 47 -47 51 -34 -21 22 -21 171 48 28 47 186 52 4 -20 23 -20 return
          </CharString>
          <CharString index="168">
            106 callgsubr
            36 3 22 61 37 -3 0 vhcurveto
            3 42 -44 119 callgsubr
            return
          </CharString>
          <CharString index="169">
            28 31 -3 -2 22 hvcurveto
            -70 callsubr
            return
          </CharString>
          <CharString index="170">
            47 callsubr
            52 -29 34 -60 return
          </CharString>
          <CharString index="171">
            12 -53 -52 13 -69 hhcurveto
            return
          </CharString>
          <CharString index="172">
            85 callgsubr
            hvcurveto
            return
          </CharString>
          <CharString index="173">
            -30 callsubr
            -3 return
          </CharString>
          <CharString index="174">
            vstem
            25 242 rmoveto
            153 -222 37 25 -107 197 107 197 -37 25 rlineto
            return
          </CharString>
          <CharString index="175">
            155 rmoveto
            -206 -90 18 -43 79 33 rlineto
            17 6 119 29 0 vvcurveto
            endchar
          </CharString>
          <CharString index="176">
            -12 rlineto
            hintmask 01001100
            81 callgsubr
            -254 vlineto
            -17 -7 -46 -2 -13 vhcurveto
            return
          </CharString>
          <CharString index="177">
            -9 -27 -68 hvcurveto
            13 -147 55 3 -2 45 rlineto
            10 5 25 5 16 vhcurveto
            20 return
          </CharString>
          <CharString index="178">
            -32 vmoveto
            26 10 -19 -22 -21 -10 -19 -26 -25 -10 19 21 22 10 19 25 hvcurveto
            return
          </CharString>
          <CharString index="179">
            0 0 68 441 -20 hstem
            52 455 vstem
            52 66 rmoveto
            122 callsubr
            return
          </CharString>
          <CharString index="180">
            7 59 -90 -88 callsubr
            return
          </CharString>
          <CharString index="181">
            45 21 26 35 41 vvcurveto
            68 -46 36 -87 vhcurveto
            return
          </CharString>
          <CharString index="182">
            -20 -66 -30 callsubr
            return
          </CharString>
          <CharString index="183">
            -21 713 54 hstemhm
            36 59 198 94 -67 95 hintmask 11101000
            hintmask 11110000
            188 return
          </CharString>
          <CharString index="184">
            3 52 3 57 0 vvcurveto
            50 hlineto
            19 93 10 0 hvcurveto
            -4 63 rlineto
            endchar
          </CharString>
          <CharString index="185">
            43 -43 46 -28 -21 123 46 return
          </CharString>
          <CharString index="186">
            rmoveto
            -20 callsubr
            hvcurveto
            return
          </CharString>
          <CharString index="187">
            55 -4 0 vhcurveto
            5 49 return
          </CharString>
          <CharString index="188">
            710 rmoveto
            0 return
          </CharString>
          <CharString index="189">
            19 686 rmoveto
            8 -98 31 callgsubr
            return
          </CharString>
          <CharString index="190">
            308 -30 callgsubr
            return
          </CharString>
          <CharString index="191">
            129 hstem
            121 118 vstem
            180 return
          </CharString>
          <CharString index="192" raw="1">
            4b6d0a0b   
          </CharString>
          <CharString index="193">
            46 -10 rlineto
            0 7 -38 -13 vvcurveto
            -112 vlineto
            -12 -6 -38 0 vhcurveto
            return
          </CharString>
          <CharString index="194">
            43 callgsubr
            37 -12 rlineto
            return
          </CharString>
          <CharString index="195">
            88 19 43 83 74 vvcurveto
            47 -16 42 -47 -39 -23 -30 -39 vhcurveto
            return
          </CharString>
          <CharString index="196">
            50 rlineto
            19 9 124 53 0 vvcurveto
            return
          </CharString>
          <CharString index="197">
            hstemhm
            229 87 19 191 return
          </CharString>
          <CharString index="198">
            -58 -10 112 callgsubr
            return
          </CharString>
          <CharString index="199">
            -103 -11 55 444 52 return
          </CharString>
          <CharString index="200">
            38 7 75 0 vhcurveto
            return
          </CharString>
          <CharString index="201">
            rmoveto
            -27 -21 -7 0 hvcurveto
            4 -38 rlineto
            0 18 2 11 47 return
          </CharString>
          <CharString index="202">
            -136 53 3 -1 41 rlineto
            8 4 22 5 13 vhcurveto
            15 return
          </CharString>
          <CharString index="203">
            5 -20 25 -20 return
          </CharString>
          <CharString index="204">
            -63 5 rlineto
            -2 return
          </CharString>
          <CharString index="205">
            134 112 76 135 142 -85 71 -138 return
          </CharString>
          <CharString index="206">
            48 172 43 hstem
            34 81 139 80 vstem
            204 return
          </CharString>
          <CharString index="207">
            10 -60 6 -6 rlineto
            0 145 18 25 1 vhcurveto
            90 return
          </CharString>
          <CharString index="208">
            44 173 47 hstem
            27 82 138 83 vstem
            162 return
          </CharString>
          <CharString index="209">
            93 callgsubr
            hintmask 10101111
            return
          </CharString>
          <CharString index="210">
            46 -10 rlineto
            0 6 -38 -13 vvcurveto
            return
          </CharString>
          <CharString index="211">
            0 98 5 20 vhcurveto
            return
          </CharString>
          <CharString index="212">
            -53 1 0 vhcurveto
            return
          </CharString>
          <CharString index="213">
            227 67 81 120 vvcurveto
            hintmask 10111000
            102 -76 59 return
          </CharString>
          <CharString index="214">
            rmoveto
            433 738 -50 32 -434 -738 rlineto
            return
          </CharString>
          <CharString index="215">
            12 120 -47 4 -1 -12 -7 -24 -3 -12 rlinecurve
            return
          </CharString>
          <CharString index="216">
            -43 26 -29 51 51 25 29 43 44 -25 29 -51 return
          </CharString>
          <CharString index="217">
            rmoveto
            497 hlineto
            5 75 rlineto
            -504 hlineto
            endchar
          </CharString>
          <CharString index="218">
            56 166 56 return
          </CharString>
          <CharString index="219">
            26 49 -1 0 return
          </CharString>
          <CharString index="220">
            46 -28 -21 hstemhm
            122 69 hintmask 10100000
            248 return
          </CharString>
          <CharString index="221">
            hhcurveto
            104 67 -55 -108 -108 -68 -53 -104 return
          </CharString>
          <CharString index="222">
            40 hstemhm
            25 76 -62 73 114 73 -62 75 return
          </CharString>
          <CharString index="223">
            0 vhcurveto
            22 -18 88 10 6 6 rlineto
            0 -33 return
          </CharString>
          <CharString index="224">
            38 95 38 hstem
            90 49 83 47 vstem
            180 return
          </CharString>
          <CharString index="225">
            71 80 callsubr
            return
          </CharString>
          <CharString index="226">
            4 22 71 55 -4 0 vhcurveto
            return
          </CharString>
          <CharString index="227">
            hvcurveto
            6 -8 6 -9 return
          </CharString>
          <CharString index="228">
            473 408 rmoveto
            return
          </CharString>
          <CharString index="229">
            -66 455 71 vlineto
            return
          </CharString>
          <CharString index="230">
            -64 hlineto
            hintmask 01110000
            -17 -7 -45 -2 -14 vhcurveto
            return
          </CharString>
          <CharString index="231">
            -20 35 -20 277 -20 hstemhm
            227 50 return
          </CharString>
          <CharString index="232">
            -340 -83 -21 94 139 -118 -21 return
          </CharString>
          <CharString index="233">
            rmoveto
            -42 -28 -34 -43 -18 vhcurveto
            10 -32 rlineto
            return
          </CharString>
          <CharString index="234">
            47 hstem
            21 82 131 82 vstem
            152 return
          </CharString>
          <CharString index="235">
            587 533 rmoveto
            0 -50 -4 -71 vhcurveto
            return
          </CharString>
          <CharString index="236">
            rmoveto
            102 195 34 -193 rlineto
            endchar
          </CharString>
          <CharString index="237">
            rlineto
            hintmask 1001000110000000
            return
          </CharString>
        <CharString name=".notdef">
          -336 endchar
        </CharString>
        <CharString name="A">
          -96 callgsubr
          endchar
        </CharString>
        <CharString name="AE">
          -97 callsubr
          endchar
        </CharString>
        <CharString name="AEacute">
          -97 callsubr
          192 596 -83 callsubr
        </CharString>
        <CharString name="Aacute">
          -96 callgsubr
          221 616 -83 callsubr
        </CharString>
        <CharString name="Abreve">
          -34 callsubr
          63 56 hstemhm
          176 111 callsubr
          hintmask 10111110
          -74 callgsubr
          hintmask 01111110
          -49 callsubr
          hintmask 10111110
          -78 callgsubr
          hintmask 01111110
          -47 callgsubr
          hintmask 10111110
          -42 callgsubr
          168 616 -77 callgsubr
        </CharString>
        <CharString name="Acircumflex">
          -96 callgsubr
          102 611 -58 callsubr
        </CharString>
        <CharString name="Adieresis">
          -34 callsubr
          70 119 hstemhm
          160 36 callgsubr
          hintmask 10111110
          -74 callgsubr
          hintmask 01111110
          -49 callsubr
          hintmask 10111110
          -78 callgsubr
          hintmask 01111110
          -47 callgsubr
          hintmask 10111110
          -42 callgsubr
          220 602 rmoveto
          -93 callgsubr
        </CharString>
        <CharString name="Agrave">
          -96 callgsubr
          -48 543 rmoveto
          -23 callgsubr
        </CharString>
        <CharString name="Amacron">
          -34 callsubr
          76 53 hstemhm
          10 650 hintmask 10111100
          -74 callgsubr
          hintmask 01111100
          -49 callsubr
          hintmask 10111100
          -78 callgsubr
          hintmask 01111100
          -47 callgsubr
          hintmask 10111100
          -42 callgsubr
          258 489 22 callsubr
        </CharString>
        <CharString name="Aogonek">
          104 -197 42 155 59 -43 -21 237 52 431 -20 hstemhm
          346 64 hintmask 11011100
          -74 callgsubr
          hintmask 10111100
          -49 callsubr
          hintmask 11011100
          86 hlineto
          5 54 -70 10 10 63 32 105 rlineto
          220 hlineto
          21 -60 rlineto
          8 -30 5 -25 -21 vvcurveto
          -35 -12 -26 -25 -22 vhcurveto
          -59 -51 -24 -26 -44 -40 callgsubr
          42 36 52 64 8 hvcurveto
          145 hlineto
          -42 callgsubr
          endchar
        </CharString>
        <CharString name="Aring">
          -34 callsubr
          50 38 95 38 hstemhm
          242 49 83 47 hintmask 10110111
          -74 callgsubr
          hintmask 01110111
          -49 callsubr
          hintmask 10110111
          -78 callgsubr
          hintmask 01110111
          -47 callgsubr
          hintmask 10111111
          -323 916 32 callgsubr
          -14 -359 rmoveto
          94 -271 -182 -4 rlineto
          102 596 rmoveto
          -35 callsubr
        </CharString>
        <CharString name="Aringacute">
          -34 callsubr
          34 32 81 32 hstemhm
          250 42 71 40 hintmask 10101111
          660 54 rmoveto
          -62 10 -39 85 rlineto
          hintmask 01111111
          -206 566 -58 -10 -179 -545 -49 callsubr
          hintmask 10101111
          -78 callgsubr
          hintmask 01101111
          -47 callgsubr
          hintmask 10101111
          -42 callgsubr
          97 592 rmoveto
          -51 -26 -29 -44 109 callsubr
          hvcurveto
          71 callsubr
          86 68 callsubr
        </CharString>
        <CharString name="Atilde">
          -34 callsubr
          68 82 callgsubr
          10 650 hintmask 10111010
          -74 callgsubr
          hintmask 01111010
          -49 callsubr
          hintmask 10111010
          -78 callgsubr
          hintmask 01111010
          -47 callgsubr
          hintmask 10111010
          -42 callgsubr
          234 600 rmoveto
          0 -26 -51 -27 vhcurveto
          3 callgsubr
          hintmask 10110110
          36 -21 rlineto
          10 callgsubr
          40 84 -61 callgsubr
        </CharString>
        <CharString name="B">
          38 -5 58 284 57 267 54 -5 76 callgsubr
          55 106 47 93 -70 101 hintmask 11101001
          hintmask 11101010
          332 715 rmoveto
          -61 -54 -9 -1 -60 hvcurveto
          hintmask 11011101
          -28 1 -74 4 0 vvcurveto
          -5 -54 71 -12 rlineto
          81 callgsubr
          -431 vlineto
          -17 -7 -46 -2 -13 vhcurveto
          -73 -16 5 -50 rlineto
          0 75 4 29 1 vhcurveto
          -1 77 67 -4 48 hhcurveto
          114 90 73 115 104 -71 61 -99 15 hvcurveto
          7 vlineto
          hintmask 11101010
          81 20 58 65 88 vvcurveto
          110 -87 62 -103 vhcurveto
          -104 -60 rmoveto
          3 25 29 3 29 hhcurveto
          70 48 -50 -80 hvcurveto
          hintmask 11101110
          -89 -62 -48 -80 vhcurveto
          -7 hlineto
          -7 -57 rlineto
          11 hlineto
          hintmask 11101101
          89 79 -45 -101 -90 -55 -48 -79 -33 -33 3 3 -25 hvcurveto
          -2 12 -4 52 44 vvcurveto
          371 vlineto
          hintmask 11101010
          44 5 60 2 13 vhcurveto
          endchar
        </CharString>
        <CharString name="C">
          -99 callsubr
          endchar
        </CharString>
        <CharString name="Cacute">
          -99 callsubr
          -100 879 -83 callsubr
        </CharString>
        <CharString name="Ccaron">
          -99 callsubr
          -68 874 -62 callgsubr
        </CharString>
        <CharString name="Ccedilla">
          50 34 callsubr
          -14 -21 80 57 619 58 hstemhm
          42 103 198 39 37 65 13 64 -51 62 hintmask 1010111101000000
          hintmask 1010111100100000
          569 170 rmoveto
          -59 -2 rlineto
          0 0 -37 -2 -10 vhcurveto
          -10 -7 -23 -7 -23 vhcurveto
          -13 -42 -53 -9 -41 hhcurveto
          -143 -70 137 173 173 70 136 144 hvcurveto
          hintmask 1001111101000000
          38 49 -10 -13 39 hvcurveto
          6 -20 6 -21 -9 vvcurveto
          -47 vlineto
          59 -4 10 148 rlineto
          16 -63 -62 18 -82 hhcurveto
          -210 -107 -150 -218 -214 103 -147 202 -5 hvcurveto
          -7 -80 11 -10 rlineto
          hintmask 1010111111000000
          -13 callgsubr
          hintmask 0110111101000000
          -13 -35 rlineto
          hintmask 1010111111000000
          2 callsubr
          9 45 rlineto
          hintmask 1010111100100000
          67 4 61 15 55 14 rrcurveto
          endchar
        </CharString>
        <CharString name="Ccircumflex">
          -99 callsubr
          -219 874 -58 callsubr
        </CharString>
        <CharString name="Cdotaccent">
          50 -15 58 619 58 41 129 hstemhm
          42 103 152 118 82 64 -51 62 hintmask 11011100
          hintmask 11011010
          569 170 rmoveto
          -59 -2 rlineto
          0 0 -37 -2 -10 vhcurveto
          -10 -7 -23 -7 -23 vhcurveto
          -13 -42 -53 -9 -41 hhcurveto
          -143 -70 137 173 173 70 136 144 hvcurveto
          hintmask 11011100
          38 49 -10 -13 39 hvcurveto
          6 -20 6 -21 -9 vvcurveto
          -47 vlineto
          59 -4 10 148 rlineto
          16 -63 -62 18 -82 hhcurveto
          -210 -107 64 callgsubr
          107 -149 210 hvcurveto
          hintmask 11111010
          81 72 18 16 63 hvcurveto
          -219 871 -87 callgsubr
          endchar
        </CharString>
        <CharString name="D">
          -67 callgsubr
          endchar
        </CharString>
        <CharString name="Dcaron">
          -67 callgsubr
          147 238 -62 callgsubr
        </CharString>
        <CharString name="Dcroat">
          -77 callsubr
        </CharString>
        <CharString name="Delta">
          120 -15 59 672 -20 hstem
          25 630 vstem
          631 -15 rmoveto
          24 68 rlineto
          0 -35 59 -10 24 vhcurveto
          -9 22 -240 558 0 vvcurveto
          -54 -13 -216 -537 rlineto
          -9 -28 -57 -88 0 vvcurveto
          28 -65 rlineto
          460 149 rmoveto
          6 -16 11 -40 7 -28 rrcurveto
          -3 -116 -163 -3 -18 hhcurveto
          -34 -47 1 1 -41 hvcurveto
          7 24 8 32 4 16 184 467 rcurveline
          endchar
        </CharString>
        <CharString name="E">
          28 0 57 -40 -21 342 56 255 56 10 -20 8 callsubr
          hintmask 1011011000000000
          -65 callgsubr
          -431 vlineto
          hintmask 0111011000000000
          -105 callsubr
          hintmask 1011011010000000
          -47 callsubr
          hintmask 0111011010000000
          19 18 15 151 -21 callsubr
          hintmask 1011011010000000
          -106 callgsubr
          28 31 -3 -2 22 hvcurveto
          hintmask 1011011100000000
          -75 callsubr
          hintmask 1010111100000000
          -54 callgsubr
          -224 hlineto
          hintmask 1011011000000000
          65 callsubr
          endchar
        </CharString>
        <CharString name="Eacute">
          -106 callsubr
          364 188 rmoveto
          -229 -100 rlineto
          hintmask 1010101100000000
          -80 callgsubr
        </CharString>
        <CharString name="Ebreve">
          -51 callsubr
          63 56 22 callgsubr
          -66 111 callsubr
          -32 53 callgsubr
          hintmask 1011001100100000
          -65 callgsubr
          -431 vlineto
          hintmask 0111001100100000
          -105 callsubr
          hintmask 1011001100101000
          -47 callsubr
          hintmask 0111001100101000
          19 18 15 151 -21 callsubr
          hintmask 1011001100101000
          -106 callgsubr
          28 31 -3 -2 22 hvcurveto
          hintmask 1011001100110000
          -75 callsubr
          hintmask 1010011100110000
          -54 callgsubr
          -224 hlineto
          hintmask 1011001100100000
          65 callsubr
          328 188 45 callgsubr
          vhcurveto
          hintmask 1010101101000000
          87 callgsubr
          hvcurveto
          -56 hlineto
          -90 49 -50 90 vhcurveto
          hintmask 1011001011000000
          90 49 50 90 hvcurveto
          endchar
        </CharString>
        <CharString name="Ecaron">
          -106 callsubr
          396 183 rmoveto
          -88 -41 rlineto
          hintmask 1010101100000000
          -63 -25 -63 25 -88 41 -23 -39 174 -107 174 107 rlineto
          endchar
        </CharString>
        <CharString name="Ecircumflex">
          -106 callsubr
          245 183 rmoveto
          -174 -107 rlineto
          hintmask 1010101100000000
          -70 callgsubr
        </CharString>
        <CharString name="Edieresis">
          -51 callsubr
          70 119 hstemhm
          122 108 -100 91 137 108 -65 53 callgsubr
          hintmask 1011000010100000
          -65 callgsubr
          -431 vlineto
          hintmask 0111000010100000
          -105 callsubr
          hintmask 1011000010101000
          -47 callsubr
          hintmask 0111000010101000
          19 18 15 151 -21 callsubr
          hintmask 1011000010101000
          -106 callgsubr
          28 31 -3 -2 22 hvcurveto
          hintmask 1011000010110000
          -75 callsubr
          hintmask 1010010010110000
          -54 callgsubr
          -224 hlineto
          hintmask 1011000010100000
          65 callsubr
          363 174 79 callsubr
          hintmask 1010101011000000
          -36 18 -23 36 36 18 23 36 -22 callsubr
          hvcurveto
          hintmask 1011001100100000
          36 18 23 36 -20 callgsubr
          hvcurveto
          endchar
        </CharString>
        <CharString name="Edotaccent">
          -51 callsubr
          66 129 22 callgsubr
          14 118 48 53 callgsubr
          hintmask 1011000101000000
          -65 callgsubr
          -431 vlineto
          hintmask 0111000101000000
          -105 callsubr
          hintmask 1011000101010000
          -47 callsubr
          hintmask 0111000101010000
          19 18 15 151 -21 callsubr
          hintmask 1011000101010000
          -106 callgsubr
          28 31 -3 -2 22 hvcurveto
          hintmask 1011000101100000
          -75 callsubr
          hintmask 1010010101100000
          -54 callgsubr
          -224 hlineto
          hintmask 1011000101000000
          65 callsubr
          245 180 rmoveto
          -38 -21 -27 -38 hvcurveto
          hintmask 1010100101000000
          62 callgsubr
          vhcurveto
          hintmask 1011001111000000
          -60 callgsubr
          endchar
        </CharString>
        <CharString name="Egrave">
          -106 callsubr
          95 115 rmoveto
          0 132 -32 19 -6 vhcurveto
          hintmask 1010101100000000
          88 -37 20 48 -229 100 rlineto
          endchar
        </CharString>
        <CharString name="Emacron">
          -51 callsubr
          76 53 8 callsubr
          hintmask 1011001110000000
          -65 callgsubr
          -431 vlineto
          hintmask 0111001110000000
          -105 callsubr
          hintmask 1011001110100000
          -47 callsubr
          hintmask 0111001110100000
          19 18 15 151 -21 callsubr
          hintmask 1011001110100000
          -106 callgsubr
          28 31 -3 -2 22 hvcurveto
          hintmask 1011001111000000
          -75 callsubr
          hintmask 1010011111000000
          -54 callgsubr
          -224 hlineto
          hintmask 1011001110000000
          65 callsubr
          401 61 rmoveto
          5 53 rlineto
          hintmask 1010101110000000
          -322 -53 hlineto
          endchar
        </CharString>
        <CharString name="Eng">
          216 -15 callsubr
          -20 21 hstemhm
          130 67 388 67 hintmask 1001000011000000
          hintmask 1000100011000000
          27 callgsubr
          hintmask 1001000011000000
          -64 callgsubr
          hintmask 1000001011000000
          -20 21 rlineto
          hintmask 1000000111000000
          -44 hlineto
          -20 -1 -96 5 0 vvcurveto
          hintmask 1000100011000000
          -5 -54 rlineto
          hintmask 1000010011000000
          80 -12 rlineto
          hintmask 0011000011000000
          2 -15 7 -45 -16 vvcurveto
          -431 -29 callsubr
          88 25 callsubr
          43 -5 0 vhcurveto
          hintmask 1001000011000000
          7 59 -81 7 rlineto
          hintmask 0011000011000000
          -2 14 -5 50 42 vvcurveto
          hintmask 1001000011000000
          389 vlineto
          386 -552 rlineto
          -11 -38 -67 -144 0 vvcurveto
          34 -22 40 57 73 109 -1 27 rlinecurve
          0 1 264 40 vvcurveto
          231 vlineto
          hintmask 0100100011000000
          40 11 54 4 19 vhcurveto
          79 16 rlineto
          endchar
        </CharString>
        <CharString name="Eogonek">
          28 -197 42 151 61 -57 57 281 56 255 56 10 76 callgsubr
          89 64 27 53 callgsubr
          hintmask 1011101010000000
          -65 callgsubr
          -431 vlineto
          hintmask 1101101010000000
          -105 callsubr
          hintmask 1011101110000000
          104 callsubr
          213 38 callgsubr
          hintmask 1101101110100000
          40 35 58 91 vhcurveto
          16 hlineto
          19 18 15 151 -55 5 rlineto
          hintmask 1011101010100000
          -2 -16 -10 -36 -3 -15 -106 callgsubr
          hintmask 1011101011000000
          62 callsubr
          hintmask 1011011011000000
          -7 136 -54 callgsubr
          hintmask 1011101010000000
          -224 hlineto
          65 callsubr
          endchar
        </CharString>
        <CharString name="Eth">
          -77 callsubr
        </CharString>
        <CharString name="Etilde">
          -51 callsubr
          84 68 -27 68 8 callsubr
          hintmask 1011000011000000
          -65 callgsubr
          -431 vlineto
          hintmask 0111000011000000
          -105 callsubr
          hintmask 1011000011010000
          -47 callsubr
          hintmask 0111000011010000
          19 18 15 151 -21 callsubr
          hintmask 1011000011010000
          -106 callgsubr
          28 31 -3 -2 22 hvcurveto
          hintmask 1011000011100000
          -75 callsubr
          hintmask 1010010011100000
          -54 callgsubr
          -224 hlineto
          hintmask 1011000011000000
          65 callsubr
          382 188 -25 callsubr
          hintmask 1010101011000000
          100 callgsubr
          hintmask 1011000111000000
          10 callgsubr
          40 74 -61 callgsubr
        </CharString>
        <CharString name="Euro">
          129 -15 58 196 35 -23 34 60 35 -23 34 213 58 hstemhm
          141 107 325 66 -52 64 hintmask 1010111100000000
          hintmask 1100111010000000
          52 237 rmoveto
          95 4 rlineto
          -155 25 100 -101 173 hhcurveto
          78 69 18 16 62 hvcurveto
          -6 151 -61 -2 rlineto
          0 0 -37 -2 -10 vhcurveto
          -10 -6 -23 -7 -23 vhcurveto
          -13 -39 -49 -9 -37 hhcurveto
          hintmask 1010111100000000
          -111 -64 85 118 -18 hvcurveto
          208 10 -2 34 -210 -10 rlineto
          -1 14 -1 15 15 vvcurveto
          28 vlineto
          209 10 -2 34 -203 -9 rlineto
          125 15 64 92 115 hhcurveto
          35 45 -10 -13 37 hvcurveto
          5 -20 5 -21 -9 vvcurveto
          -45 vlineto
          61 -6 11 148 rlineto
          16 -61 -60 18 -79 hhcurveto
          hintmask 1101011100000000
          -181 -101 -111 -169 -19 hvcurveto
          -99 -4 2 -35 94 4 rlineto
          -24 vlineto
          -16 0 -16 2 -15 vhcurveto
          -93 -4 rlineto
          endchar
        </CharString>
        <CharString name="F">
          -8 -24 callgsubr
          335 56 263 56 5 -20 25 -20 16 callsubr
          hintmask 1011001100000000
          hintmask 1010011100000000
          503 715 rmoveto
          0 -94 -10 -20 vhcurveto
          hintmask 1011001100000000
          -224 hlineto
          -91 callgsubr
          hintmask 0110101100000000
          77 -12 rlineto
          2 -13 7 -46 -17 vvcurveto
          -431 -29 callsubr
          98 25 callsubr
          76 -64 callsubr
          hintmask 1011001100000000
          -100 -88 callsubr
          hintmask 0111001100000000
          160 vlineto
          hintmask 1011001100000000
          -93 callsubr
          64 0 vhcurveto
          -46 5 -9 -66 rlineto
          0 -40 -9 -20 vhcurveto
          -73 hlineto
          -8 -18 1 1 -17 hvcurveto
          150 vlineto
          39 5 51 2 21 vhcurveto
          131 hlineto
          62 callsubr
          hintmask 1011001110000000
          -7 136 rlineto
          endchar
        </CharString>
        <CharString name="G">
          106 35 callgsubr
          hstemhm
          42 101 382 80 -78 63 hintmask 11111000
          -103 callsubr
          hintmask 11110100
          -56 callsubr
          hintmask 11111000
          65 callgsubr
          endchar
        </CharString>
        <CharString name="Gbreve">
          49 callgsubr
          38 56 hstemhm
          42 101 98 111 callsubr
          6 80 -78 63 hintmask 1111110100000000
          -103 callsubr
          hintmask 1111110010000000
          -56 callsubr
          hintmask 1111110100000000
          65 callgsubr
          hintmask 1111111000000000
          87 178 -77 callgsubr
        </CharString>
        <CharString name="Gcircumflex">
          49 callgsubr
          hstemhm
          42 101 382 80 -78 63 hintmask 11111000
          -103 callsubr
          hintmask 11110100
          -56 callsubr
          hintmask 11111000
          65 callgsubr
          4 173 -58 callsubr
        </CharString>
        <CharString name="Gcommaaccent">
          49 callgsubr
          hstemhm
          42 101 176 102 104 80 -78 63 hintmask 11110100
          -103 callsubr
          hintmask 11110010
          -56 callsubr
          hintmask 11110100
          65 callgsubr
          hintmask 11111100
          -57 -836 -85 callgsubr
        </CharString>
        <CharString name="Gdieresis">
          49 callgsubr
          35 119 hstemhm
          42 101 65 36 callgsubr
          -27 80 -78 63 hintmask 1110100100000000
          -103 callsubr
          hintmask 1110100010000000
          -56 callsubr
          hintmask 1110100100000000
          65 callgsubr
          hintmask 1111111000000000
          122 154 rmoveto
          -93 callgsubr
        </CharString>
        <CharString name="Gdotaccent">
          49 callgsubr
          41 129 hstemhm
          42 101 178 118 86 80 -78 63 hintmask 11101010
          -103 callsubr
          hintmask 11101001
          -56 callsubr
          hintmask 11101010
          65 callgsubr
          hintmask 11111110
          4 170 -87 callgsubr
          endchar
        </CharString>
        <CharString name="Gtilde">
          49 callgsubr
          33 82 callgsubr
          42 101 382 80 -78 63 hintmask 11110110
          -103 callsubr
          hintmask 11110101
          -56 callsubr
          hintmask 11110110
          65 callgsubr
          136 152 -25 callsubr
          hintmask 11101110
          -40 -85 -69 callsubr
          hintmask 11110110
          40 84 -61 callgsubr
        </CharString>
        <CharString name="H">
          -89 callgsubr
          endchar
        </CharString>
        <CharString name="Hbar">
          213 -24 callgsubr
          332 53 119 44 101 -10 callgsubr
          331 91 hintmask 1011010110000000
          hintmask 1011001110000000
          129 callgsubr
          hintmask 1011010110000000
          -91 callgsubr
          hintmask 1011001110000000
          17 callsubr
          hintmask 1011100110000000
          81 callgsubr
          -25 -331 vlineto
          41 5 46 2 14 vhcurveto
          78 7 rlineto
          hintmask 1011010110000000
          -4 59 rlineto
          -16 callsubr
          hintmask 1011001110000000
          -91 callgsubr
          hintmask 1011010110000000
          -61 callsubr
          hintmask 1011001110000000
          -25 vlineto
          hintmask 0111100110000000
          -87 -44 87 -362 hlineto
          -105 callsubr
          0 98 5 20 -39 callsubr
          73 callsubr
          hintmask 1011010110000000
          160 331 vlineto
          hintmask 0111010110000000
          -190 vlineto
          hintmask 1011010110000000
          -105 callsubr
          0 98 5 20 80 66 -64 callsubr
          hintmask 0111010110000000
          -90 -88 callsubr
          332 104 vlineto
          hintmask 1011010110000000
          44 -104 vlineto
          hintmask 0111010110000000
          41 5 46 2 14 vhcurveto
          hintmask 1011010110000000
          78 7 rlineto
          -507 -273 rmoveto
          121 331 -116 vlineto
          endchar
        </CharString>
        <CharString name="Hcircumflex">
          -89 callgsubr
          -341 242 rmoveto
          hintmask 01101011
          -174 -107 rlineto
          hintmask 10101011
          -70 callgsubr
        </CharString>
        <CharString name="I">
          -97 callgsubr
          endchar
        </CharString>
        <CharString name="IJ">
          55 -24 callgsubr
          649 61 -58 57 -48 49 5 -20 hstemhm
          136 91 182 91 hintmask 10010011
          hintmask 10000111
          581 -30 callgsubr
          hintmask 10010011
          -273 hlineto
          -91 callgsubr
          hintmask 10000111
          17 callsubr
          hintmask 10001011
          81 callgsubr
          hintmask 01100011
          -431 -29 callsubr
          98 5 20 80 66 -64 callsubr
          hintmask 10010011
          -90 -88 callsubr
          hintmask 01010011
          371 vlineto
          hintmask 10100011
          -54 callsubr
          83 12 83 -12 rlineto
          81 callgsubr
          -557 vlineto
          hintmask 10001011
          -20 -80 -169 0 vhcurveto
          hintmask 10100011
          34 -22 rlineto
          47 56 90 107 27 vvcurveto
          548 -26 callsubr
          endchar
        </CharString>
        <CharString name="Iacute">
          -97 callgsubr
          -11 247 -83 callsubr
        </CharString>
        <CharString name="Ibreve">
          -40 callsubr
          68 56 hstemhm
          43 56 37 91 38 56 hintmask 1001011110000000
          hintmask 1000111110000000
          83 callsubr
          hintmask 1001011110000000
          -91 callgsubr
          hintmask 1000111110000000
          17 callsubr
          hintmask 0110011110000000
          81 callgsubr
          -431 -29 callsubr
          98 5 20 80 66 -64 callsubr
          hintmask 1001011110000000
          -90 -88 callsubr
          hintmask 0101011110000000
          371 vlineto
          hintmask 1001011110000000
          -52 callgsubr
          -47 247 -77 callgsubr
        </CharString>
        <CharString name="Icircumflex">
          -97 callgsubr
          -130 242 -58 callsubr
        </CharString>
        <CharString name="Idieresis">
          -40 callsubr
          75 119 hstemhm
          40 108 -12 91 -11 108 hintmask 1001010100000000
          hintmask 1000111010000000
          270 884 rmoveto
          -100 callsubr
          67 callgsubr
          214 -174 rmoveto
          hintmask 1001010100000000
          0 -57 -5 -80 85 callgsubr
          vhcurveto
          hintmask 1000110100000000
          -5 -54 rlineto
          hintmask 0110010100000000
          77 -12 rlineto
          2 -13 7 -46 -17 vvcurveto
          -431 -29 callsubr
          98 5 20 -39 callsubr
          hintmask 1001010100000000
          7 59 -90 7 rlineto
          hintmask 0101010100000000
          -2 14 -5 50 42 vvcurveto
          hintmask 1001010100000000
          10 callsubr
          endchar
        </CharString>
        <CharString name="Idotaccent">
          -40 callsubr
          71 129 hstemhm
          123 118 -105 91 hintmask 10010001
          hintmask 10001001
          83 callsubr
          hintmask 10010001
          -91 callgsubr
          hintmask 10001001
          17 callsubr
          hintmask 01100001
          81 callgsubr
          -431 -29 callsubr
          98 5 20 80 66 -64 callsubr
          hintmask 10010001
          -90 -88 callsubr
          hintmask 01010001
          371 vlineto
          hintmask 10010001
          -52 callgsubr
          -130 239 rmoveto
          -38 -21 -27 -38 62 callgsubr
          38 21 26 38 hvcurveto
          hintmask 10010110
          41 -22 24 -37 vhcurveto
          endchar
        </CharString>
        <CharString name="Igrave">
          -97 callgsubr
          -280 174 rmoveto
          -23 callgsubr
        </CharString>
        <CharString name="Imacron">
          -40 callsubr
          81 53 hstemhm
          109 91 hintmask 10010110
          279 771 rmoveto
          5 53 rlineto
          -258 -53 hlineto
          hintmask 10001110
          255 -61 rmoveto
          hintmask 10010110
          0 -57 -5 -80 85 callgsubr
          vhcurveto
          hintmask 10001110
          -5 -54 rlineto
          hintmask 01100110
          77 -12 rlineto
          2 -13 7 -46 -17 vvcurveto
          -431 -29 callsubr
          98 5 20 -39 callsubr
          hintmask 10010110
          7 59 -90 7 rlineto
          hintmask 01010110
          -2 14 -5 50 42 vvcurveto
          hintmask 10010110
          10 callsubr
          endchar
        </CharString>
        <CharString name="Iogonek">
          -197 -197 42 150 62 -57 57 587 13 callgsubr
          25 64 47 91 hintmask 11001011
          108 13 rmoveto
          -55 -55 -28 -22 -44 51 callsubr
          hintmask 10101011
          42 36 52 64 8 vhcurveto
          71 57 -5 0 hvcurveto
          hintmask 11001011
          73 callsubr
          48 callsubr
          78 7 -4 59 rlineto
          hintmask 11000111
          0 -57 -5 -80 85 callgsubr
          vhcurveto
          hintmask 11001011
          -5 -54 17 callsubr
          hintmask 11000111
          81 callgsubr
          hintmask 11010011
          -431 vlineto
          -1 -76 -4 -25 -23 -23 rrcurveto
          endchar
        </CharString>
        <CharString name="Itilde">
          -40 callsubr
          73 82 callgsubr
          136 91 hintmask 10010101
          hintmask 10001101
          83 callsubr
          hintmask 10010101
          -91 callgsubr
          hintmask 10001101
          17 callsubr
          hintmask 01100101
          81 callgsubr
          -431 -29 callsubr
          98 5 20 80 66 -64 callsubr
          hintmask 10010101
          -90 -88 callsubr
          hintmask 01010101
          371 vlineto
          hintmask 10010101
          -52 callgsubr
          2 231 rmoveto
          0 -26 -51 -27 vhcurveto
          -40 -85 -69 callsubr
          hintmask 10010011
          40 84 -61 callgsubr
        </CharString>
        <CharString name="J">
          -37 callgsubr
          endchar
        </CharString>
        <CharString name="Jcircumflex">
          -37 callgsubr
          -58 249 rmoveto
          hintmask 01010000
          -174 -107 -70 callgsubr
        </CharString>
        <CharString name="K">
          88 callgsubr
          -82 callsubr
          endchar
        </CharString>
        <CharString name="Kcommaaccent">
          88 callgsubr
          98 102 -82 callsubr
          13 -767 rmoveto
          hintmask 01101000
          13 callsubr
          hintmask 10101100
          45 callsubr
          37 -12 rlineto
          0 47 80 55 vvcurveto
          42 -19 24 -33 -24 -26 -19 -39 vhcurveto
          endchar
        </CharString>
        <CharString name="L">
          -67 callsubr
          endchar
        </CharString>
        <CharString name="Lacute">
          -67 callsubr
          -9 247 -83 callsubr
        </CharString>
        <CharString name="Lcaron">
          -26 0 57 -40 -21 369 241 38 -10 callgsubr
          145 64 39 47 hintmask 1010101100000000
          348 607 rmoveto
          12 callsubr
          hintmask 1010011100000000
          -135 103 -59 callgsubr
        </CharString>
        <CharString name="Lcommaaccent">
          -26 0 57 -40 -21 648 -10 callgsubr
          18 102 128 47 hintmask 10010100
          hintmask 10001100
          302 -30 callgsubr
          hintmask 10010100
          -91 callgsubr
          hintmask 10001100
          17 callsubr
          hintmask 01100100
          81 callgsubr
          -431 -43 callsubr
          hintmask 10010101
          75 callgsubr
          15 151 rlineto
          hintmask 01010101
          -49 callgsubr
          hintmask 10010101
          -28 callsubr
          -67 -767 43 callgsubr
          hintmask 10010110
          37 -12 rlineto
          0 47 80 55 vvcurveto
          42 -19 24 -33 -24 -26 -19 -39 vhcurveto
          endchar
        </CharString>
        <CharString name="Ldot">
          -26 0 57 -40 -21 345 139 164 -10 callgsubr
          97 128 23 47 hintmask 1010101100000000
          382 480 -13 callsubr
          hintmask 1010011100000000
          -80 230 -59 callgsubr
        </CharString>
        <CharString name="Lslash">
          -26 0 57 -40 -21 504 -20 164 -10 callgsubr
          248 47 hintmask 10101010
          hintmask 10100110
          302 -30 callgsubr
          hintmask 10101010
          -91 callgsubr
          hintmask 10100110
          17 callsubr
          hintmask 01110010
          81 callgsubr
          -152 vlineto
          -100 -36 15 -41 85 31 rlineto
          -233 -43 callsubr
          hintmask 10101011
          75 callgsubr
          15 151 rlineto
          hintmask 01101011
          -49 callgsubr
          hintmask 10101011
          -118 hlineto
          -2 15 -5 54 41 vvcurveto
          236 vlineto
          154 56 -15 41 -139 -51 rlineto
          89 -26 callsubr
          endchar
        </CharString>
        <CharString name="M">
          368 -24 callgsubr
          652 57 -48 54 -25 20 -20 21 4 -20 hstemhm
          27 880 -878 159 hintmask 1010000100000000
          674 705 rmoveto
          hintmask 1000100100000000
          -20 -20 rlineto
          0 -43 -126 -10 -22 vhcurveto
          -136 -362 -133 354 rlineto
          -9 24 -43 132 0 vvcurveto
          hintmask 1000010100000000
          -19 21 rlineto
          hintmask 1000010010000000
          -56 hlineto
          hintmask 1000001010000000
          -20 -1 -118 5 0 vvcurveto
          hintmask 0101000010000000
          -5 -54 82 -12 rlineto
          2 -14 2 -44 -17 vvcurveto
          -26 -437 -3 -17 -11 -41 -3 -13 rlinecurve
          -78 -16 5 -50 rlineto
          0 88 5 19 vhcurveto
          hintmask 1010000010000000
          78 51 -5 0 hvcurveto
          7 59 rlineto
          hintmask 0110000010000000
          -81 7 rlineto
          hintmask 1010000010000000
          -1 16 -4 57 28 vvcurveto
          24 422 219 -584 rlineto
          36 hlineto
          219 584 27 -422 rlineto
          -28 -4 -58 -1 -15 vhcurveto
          -78 -16 rlineto
          hintmask 0110000100000000
          5 -50 rlineto
          0 100 5 19 -39 callsubr
          6 59 rlineto
          hintmask 1010000100000000
          -81 7 -3 13 -10 41 -3 17 rlinecurve
          hintmask 0110000100000000
          -34 437 rlineto
          hintmask 1010000100000000
          17 1 46 2 12 vhcurveto
          80 7 94 callgsubr
          -75 -5 -80 vhcurveto
          endchar
        </CharString>
        <CharString name="N">
          -101 callsubr
          endchar
        </CharString>
        <CharString name="Nacute">
          -101 callsubr
          -246 241 -83 callsubr
        </CharString>
        <CharString name="Ncaron">
          -101 callsubr
          -214 236 -62 callgsubr
        </CharString>
        <CharString name="Ncommaaccent">
          -1 callsubr
          132 102 154 67 hintmask 1001000101000000
          hintmask 1000100101000000
          27 callgsubr
          hintmask 1001000101000000
          -64 callgsubr
          hintmask 1000001101000000
          -20 21 rlineto
          hintmask 1001000101000000
          -44 -1 rlineto
          -91 callgsubr
          hintmask 1000100101000000
          80 -12 rlineto
          hintmask 0011000101000000
          2 -15 7 -45 -16 vvcurveto
          -431 -29 callsubr
          88 25 callsubr
          43 -64 callsubr
          hintmask 1001000101000000
          -81 -88 callsubr
          hintmask 0011000101000000
          389 vlineto
          hintmask 1001000101000000
          394 -563 rlineto
          60 hlineto
          0 1 264 40 vvcurveto
          231 vlineto
          hintmask 0100010111000000
          40 11 54 4 19 vhcurveto
          79 16 rlineto
          -417 -773 -85 callgsubr
        </CharString>
        <CharString name="Ntilde">
          201 -15 callsubr
          58 82 callgsubr
          130 67 388 67 hintmask 1001000101100000
          hintmask 1000100101100000
          27 callgsubr
          hintmask 1001000101100000
          -64 callgsubr
          hintmask 1000001101100000
          -20 21 rlineto
          hintmask 1001000101100000
          -44 -1 rlineto
          -91 callgsubr
          hintmask 1000100101100000
          80 -12 rlineto
          hintmask 0011000101100000
          2 -15 7 -45 -16 vvcurveto
          -431 -29 callsubr
          88 25 callsubr
          43 -64 callsubr
          hintmask 1001000101100000
          -81 -88 callsubr
          hintmask 0011000101100000
          389 vlineto
          hintmask 1001000101100000
          394 -563 rlineto
          60 hlineto
          0 1 264 40 vvcurveto
          231 vlineto
          hintmask 0100010101100000
          40 11 54 4 19 vhcurveto
          79 16 rlineto
          -233 225 rmoveto
          0 -26 -51 -27 vhcurveto
          -40 -85 -69 callsubr
          hintmask 1001000011100000
          40 84 -61 callgsubr
        </CharString>
        <CharString name="O">
          180 -15 53 629 53 hstem
          42 107 442 107 vstem
          -104 callgsubr
          endchar
        </CharString>
        <CharString name="OE">
          421 -15 53 -38 57 -40 -21 344 52 257 56 -38 53 -5 -20 hstemhm
          42 107 374 91 180 53 callgsubr
          hintmask 0101100111010000
          943 165 rmoveto
          -21 callsubr
          -2 -9 -9 -14 -10 -14 rrcurveto
          -4 -22 -34 -5 -31 hhcurveto
          -144 hlineto
          -2 19 -5 51 40 vvcurveto
          170 vlineto
          2 17 17 1 9 hhcurveto
          53 37 callsubr
          -73 hlineto
          -8 -18 1 1 -17 hvcurveto
          144 vlineto
          36 3 37 4 38 vhcurveto
          131 hlineto
          hintmask 0101100111100000
          62 callsubr
          hintmask 0101001111100000
          -7 136 -54 callgsubr
          hintmask 0101100111010000
          -224 hlineto
          -13 -48 2 2 -30 hvcurveto
          7 -30 -32 4 -35 hhcurveto
          hintmask 1001010111010000
          -217 -111 -150 -218 -5 callsubr
          35 32 4 7 30 hvcurveto
          2 30 48 2 13 hhcurveto
          hintmask 0101100111010000
          237 hlineto
          75 callgsubr
          rlineto
          hintmask 0011100111010000
          -405 94 rmoveto
          -44 -36 -52 -26 -65 hhcurveto
          hintmask 1001010111010000
          -149 -72 140 174 175 72 140 149 64 52 -28 -44 37 hvcurveto
          endchar
        </CharString>
        <CharString name="Oacute">
          180 -15 53 629 53 hstem
          42 107 442 107 vstem
          -104 callgsubr
          340 546 -83 callsubr
        </CharString>
        <CharString name="Obreve">
          58 callgsubr
          38 56 hstem
          42 107 82 111 callsubr
          82 107 vstem
          -104 callgsubr
          304 546 -77 callgsubr
        </CharString>
        <CharString name="Ocircumflex">
          180 -15 53 629 53 hstem
          42 107 442 107 vstem
          -104 callgsubr
          221 541 -58 callsubr
        </CharString>
        <CharString name="Odieresis">
          58 callgsubr
          45 119 hstem
          42 107 49 36 callgsubr
          49 107 vstem
          -104 callgsubr
          339 532 rmoveto
          -93 callgsubr
        </CharString>
        <CharString name="Ograve">
          180 -15 53 629 53 hstem
          42 107 442 107 vstem
          -104 callgsubr
          71 473 rmoveto
          -23 callgsubr
        </CharString>
        <CharString name="Ohungarumlaut">
          180 -15 53 629 53 hstem
          42 107 442 107 vstem
          -104 callgsubr
          249 561 rmoveto
          -211 -136 -11 callgsubr
        </CharString>
        <CharString name="Omacron">
          58 callgsubr
          51 53 hstem
          42 107 442 107 vstem
          -104 callgsubr
          377 419 22 callsubr
        </CharString>
        <CharString name="Omega">
          234 0 57 -40 -21 671 53 hstemhm
          79 107 94 56 122 56 94 107 -1 47 hintmask 10110010
          203 57 rmoveto
          -31 -34 5 4 -22 hvcurveto
          -10 14 -9 15 -2 8 -4 15 -9 36 -2 16 -55 -5 rcurveline
          hintmask 01110010
          15 -158 10 -11 rlineto
          0 103 4 20 vhcurveto
          hintmask 10111010
          64 hlineto
          40 54 18 callgsubr
          10 97 rlineto
          hintmask 01111110
          -109 49 -46 90 150 vvcurveto
          150 61 135 150 150 61 -135 -150 -150 -46 -90 -109 -49 vhcurveto
          10 -97 rlineto
          0 54 4 40 vhcurveto
          64 hlineto
          20 103 18 callgsubr
          hintmask 10110101
          10 11 15 158 -55 5 rlineto
          hintmask 01110001
          -2 -16 -9 -36 -4 -15 99 callgsubr
          -77 -4 rlineto
          hintmask 10110101
          13 vlineto
          130 52 71 101 163 vvcurveto
          205 -113 133 -205 -205 -113 -133 -205 -163 70 -101 131 -52 vhcurveto
          hintmask 10111010
          -13 vlineto
          endchar
        </CharString>
        <CharString name="Oslash">
          -66 callgsubr
          endchar
        </CharString>
        <CharString name="Oslashacute">
          -66 callgsubr
          -102 546 -83 callsubr
        </CharString>
        <CharString name="Otilde">
          58 callgsubr
          43 82 callgsubr
          42 107 442 107 hintmask 11101100
          -104 callgsubr
          353 530 -25 callsubr
          hintmask 11011100
          -40 -85 -69 callsubr
          hintmask 11101100
          40 84 -61 callgsubr
        </CharString>
        <CharString name="P">
          26 -24 callgsubr
          296 50 324 50 -5 76 callgsubr
          241 94 hintmask 10110110
          333 715 rmoveto
          -47 -84 -9 -1 -54 hvcurveto
          hintmask 01101110
          -34 1 -65 4 0 vvcurveto
          -5 -54 77 -12 rlineto
          2 -13 7 -46 -17 vvcurveto
          -431 -29 callsubr
          98 5 20 vhcurveto
          hintmask 10110110
          80 70 -5 0 hvcurveto
          7 59 rlineto
          hintmask 01110110
          -94 7 rlineto
          hintmask 10110110
          -2 14 -5 50 42 vvcurveto
          125 vlineto
          -1 28 32 0 29 hhcurveto
          98 callsubr
          hvcurveto
          -112 -177 rmoveto
          35 4 61 3 26 vhcurveto
          3 26 24 2 13 114 callsubr
          -18 -25 2 2 -26 hvcurveto
          endchar
        </CharString>
        <CharString name="Q">
          185 -15 53 -16 -21 666 53 hstemhm
          42 107 442 107 hintmask 10111000
          669 -224 rmoveto
          59 92 rlineto
          hintmask 01111000
          0 -142 61 -16 11 vhcurveto
          -87 61 rlineto
          143 44 72 132 175 vvcurveto
          218 -111 150 -217 -217 -111 -150 -218 vhcurveto
          hintmask 10111000
          -5 callsubr
          13 12 1 1 12 vhcurveto
          -258 365 rmoveto
          175 72 140 149 149 72 -140 -175 -174 -72 -140 -149 -149 -72 140 174 vhcurveto
          endchar
        </CharString>
        <CharString name="R">
          86 -101 callgsubr
          endchar
        </CharString>
        <CharString name="Racute">
          84 -101 callgsubr
          141 233 -83 callsubr
        </CharString>
        <CharString name="Rcaron">
          84 -101 callgsubr
          173 228 -62 callgsubr
        </CharString>
        <CharString name="Rcommaaccent">
          84 -5 62 -57 57 244 50 314 50 -5 76 callgsubr
          98 102 38 94 hintmask 01110111
          332 715 rmoveto
          -46 -83 -8 -2 -54 hvcurveto
          hintmask 10101111
          -33 2 -67 3 0 vvcurveto
          111 callgsubr
          -14 7 -46 -16 vvcurveto
          -431 -29 callsubr
          98 5 20 vhcurveto
          hintmask 01110111
          80 66 -5 0 hvcurveto
          7 59 rlineto
          hintmask 10110111
          -90 7 rlineto
          hintmask 01110111
          -2 14 -5 50 42 vvcurveto
          135 vlineto
          -1 27 32 0 29 hhcurveto
          7 hlineto
          98 -185 rlineto
          13 -24 42 -92 0 vvcurveto
          80 78 -5 0 hvcurveto
          7 59 rlineto
          hintmask 10110111
          -72 7 rlineto
          hintmask 01110111
          -16 22 -24 33 -9 15 -6 8 -51 83 -49 94 rrcurveto
          85 28 61 66 98 vvcurveto
          138 -84 69 -137 vhcurveto
          -42 -50 rmoveto
          103 66 -53 -105 -105 -67 -51 -103 -18 -25 2 2 -25 hvcurveto
          183 vlineto
          44 4 52 4 25 vhcurveto
          3 25 24 3 12 hhcurveto
          29 -781 -85 callgsubr
        </CharString>
        <CharString name="S">
          -1 -15 60 620 80 callgsubr
          241 105 -100 66 hintmask 11011000
          hintmask 11101000
          -26 callgsubr
          hintmask 11011000
          5 callsubr
          hintmask 11010100
          -76 callsubr
          hintmask 11011000
          6 callgsubr
          hintmask 11101000
          -6 callsubr
          endchar
        </CharString>
        <CharString name="Sacute">
          -1 -15 60 620 80 callgsubr
          241 105 -100 66 hintmask 11011000
          hintmask 11101000
          -26 callgsubr
          hintmask 11011000
          5 callsubr
          hintmask 11010100
          -76 callsubr
          hintmask 11011000
          6 callgsubr
          hintmask 11101000
          -6 callsubr
          265 712 -83 callsubr
        </CharString>
        <CharString name="Scaron">
          -1 -15 60 620 80 callgsubr
          241 105 -100 66 hintmask 11011000
          hintmask 11101000
          -26 callgsubr
          hintmask 11011000
          5 callsubr
          hintmask 11010100
          -76 callsubr
          hintmask 11011000
          6 callgsubr
          hintmask 11101000
          -6 callsubr
          297 707 -62 callgsubr
        </CharString>
        <CharString name="Scedilla">
          -1 34 callsubr
          -44 148 -118 -21 101 -21 679 80 callgsubr
          77 39 37 65 23 105 -100 66 hintmask 1010011010010000
          hintmask 1000111101010000
          65 192 rmoveto
          -15 -154 rlineto
          0 75 -46 119 -6 vhcurveto
          -7 -80 11 -10 rlineto
          hintmask 1010011011110000
          -13 callgsubr
          hintmask 0110011010010000
          -13 -35 rlineto
          hintmask 1010011011110000
          2 callsubr
          9 45 rlineto
          hintmask 1010011010010000
          123 6 97 63 127 5 callsubr
          hintmask 1010011010001000
          -76 callsubr
          hintmask 1001001010010000
          6 callgsubr
          hintmask 1001001100010000
          -6 callsubr
          endchar
        </CharString>
        <CharString name="Scircumflex">
          -1 -15 60 620 80 callgsubr
          241 105 -100 66 hintmask 11011000
          hintmask 11101000
          -26 callgsubr
          hintmask 11011000
          5 callsubr
          hintmask 11010100
          -76 callsubr
          hintmask 11011000
          6 callgsubr
          hintmask 11101000
          -6 callsubr
          146 707 -58 callsubr
        </CharString>
        <CharString name="Scommaaccent">
          -1 -15 60 620 80 callgsubr
          61 102 78 105 -100 66 hintmask 11010100
          hintmask 11100100
          -26 callgsubr
          hintmask 11010100
          5 callsubr
          hintmask 11010010
          -76 callsubr
          hintmask 11010100
          6 callgsubr
          hintmask 11101100
          -6 callsubr
          93 -302 -85 callgsubr
        </CharString>
        <CharString name="T">
          -78 callsubr
          endchar
        </CharString>
        <CharString name="Tbar">
          35 -24 callgsubr
          358 44 252 56 10 -20 hstemhm
          13 54 185 91 184 54 hintmask 10110011
          585 553 rmoveto
          hintmask 10101011
          -7 144 -54 callgsubr
          hintmask 10110111
          -295 3 callsubr
          hintmask 10101111
          -19 callsubr
          hintmask 01110111
          2 22 31 3 28 hhcurveto
          63 hlineto
          2 -19 7 -47 -15 vvcurveto
          -171 -155 -44 155 -216 -29 callsubr
          98 5 20 80 66 -64 callsubr
          hintmask 10110011
          -90 -88 callsubr
          hintmask 01110011
          186 vlineto
          hintmask 10110011
          154 44 -154 141 hlineto
          44 callsubr
        </CharString>
        <CharString name="Tcaron">
          -78 callsubr
          -78 345 -62 callgsubr
        </CharString>
        <CharString name="Tcedilla">
          35 34 callsubr
          -14 -21 89 62 -36 -21 649 56 10 -20 hstemhm
          13 54 185 91 -75 39 36 65 119 54 hintmask 1010101001001000
          585 553 rmoveto
          hintmask 1010100101001000
          -7 144 -54 callgsubr
          hintmask 1010101011001000
          -295 3 callsubr
          hintmask 1010100111001000
          -19 callsubr
          hintmask 1010101011001000
          2 22 31 3 28 hhcurveto
          63 hlineto
          2 -19 7 -47 -15 vvcurveto
          -431 vlineto
          -105 callsubr
          hintmask 1010101000101000
          0 69 4 34 1 -8 callgsubr
          64 -1 50 -4 0 vvcurveto
          7 59 rlineto
          hintmask 1010011001001000
          -90 7 rlineto
          hintmask 1010101001001000
          -2 14 -5 50 42 vvcurveto
          371 vlineto
          44 callsubr
        </CharString>
        <CharString name="Thorn">
          25 -24 callgsubr
          154 50 324 50 71 -10 callgsubr
          240 94 hintmask 1011010110000000
          306 651 rmoveto
          hintmask 1011001110000000
          -4 59 rlineto
          -16 callsubr
          hintmask 1011010110000000
          -91 callgsubr
          hintmask 1011001110000000
          17 callsubr
          hintmask 0111100110000000
          81 callgsubr
          -431 -29 callsubr
          98 5 20 80 66 -64 callsubr
          hintmask 1011010110000000
          -90 7 -2 12 -4 40 -1 38 rlinecurve
          hintmask 0111010110000000
          -1 28 32 -1 28 hhcurveto
          hintmask 1011010110000000
          98 callsubr
          -31 -41 -3 -3 -38 hvcurveto
          1 33 3 33 2 11 rrcurveto
          -7 -127 rmoveto
          3 26 27 3 16 114 callsubr
          -17 -26 2 3 -25 hvcurveto
          endchar
        </CharString>
        <CharString name="U">
          -105 callgsubr
          endchar
        </CharString>
        <CharString name="Uacute">
          -105 callgsubr
          -224 247 rmoveto
          -229 -100 rlineto
          hintmask 10101100
          -80 callgsubr
        </CharString>
        <CharString name="Ubreve">
          -33 callsubr
          68 56 hstemhm
          105 95 26 111 callsubr
          46 72 hintmask 1010110110000000
          hintmask 1001110110000000
          -31 callgsubr
          hintmask 1010110110000000
          -20 -86 5 0 hvcurveto
          -5 -54 rlineto
          hintmask 1001110110000000
          78 -12 rlineto
          hintmask 1100110110000000
          -98 callgsubr
          hintmask 1010110110000000
          9 callsubr
          hintmask 1001110110000000
          -91 callgsubr
          hintmask 1010110110000000
          -21 callgsubr
          hintmask 1001110110000000
          -297 vlineto
          hintmask 1100110110000000
          -90 callsubr
          -260 247 45 callgsubr
          vhcurveto
          hintmask 1010111110000000
          87 callgsubr
          hvcurveto
          -56 hlineto
          -90 49 -50 90 90 49 50 90 vhcurveto
          endchar
        </CharString>
        <CharString name="Ucircumflex">
          -105 callgsubr
          -343 242 rmoveto
          -174 -107 rlineto
          hintmask 10101100
          -70 callgsubr
        </CharString>
        <CharString name="Udieresis">
          -33 callsubr
          75 119 hstemhm
          105 95 -7 36 callgsubr
          13 72 hintmask 1010010010000000
          hintmask 1001010010000000
          -31 callgsubr
          hintmask 1010010010000000
          -20 -86 5 0 hvcurveto
          -5 -54 rlineto
          hintmask 1001010010000000
          78 -12 rlineto
          hintmask 1100010010000000
          -98 callgsubr
          hintmask 1010010010000000
          9 callsubr
          hintmask 1001010010000000
          -91 callgsubr
          hintmask 1010010010000000
          -21 callgsubr
          hintmask 1001010010000000
          -297 vlineto
          hintmask 1100010010000000
          -90 callsubr
          -225 233 79 callsubr
          hintmask 1010010010000000
          -36 18 -23 36 36 18 23 36 vhcurveto
          hintmask 1010101110000000
          39 -19 21 -35 vhcurveto
          -236 hmoveto
          -100 callsubr
          endchar
        </CharString>
        <CharString name="Ugrave">
          -105 callgsubr
          -493 174 rmoveto
          0 132 -32 19 -6 vhcurveto
          hintmask 10101100
          88 -37 20 48 -229 100 rlineto
          endchar
        </CharString>
        <CharString name="Uhungarumlaut">
          -105 callgsubr
          -315 262 rmoveto
          -211 -136 rlineto
          hintmask 10101100
          -11 callgsubr
        </CharString>
        <CharString name="Umacron">
          -33 callsubr
          81 53 hstemhm
          105 95 4 80 266 72 hintmask 10101101
          hintmask 10011101
          -31 callgsubr
          hintmask 10101101
          -20 -86 5 0 hvcurveto
          -5 -54 rlineto
          hintmask 10011101
          78 -12 rlineto
          hintmask 11001101
          -98 callgsubr
          hintmask 10101101
          -4 59 rlineto
          hintmask 10101011
          0 -64 -5 -80 vhcurveto
          hintmask 10011011
          -91 callgsubr
          hintmask 10101101
          -21 callgsubr
          hintmask 10011101
          -297 vlineto
          hintmask 11001101
          -90 callsubr
          -187 120 rmoveto
          5 53 rlineto
          hintmask 10101011
          -322 -53 hlineto
          endchar
        </CharString>
        <CharString name="Uogonek">
          167 -197 42 140 56 callsubr
          hstemhm
          105 95 101 64 185 72 hintmask 11010101
          hintmask 11001101
          -31 callgsubr
          hintmask 11010101
          -20 -86 5 0 hvcurveto
          -5 -54 rlineto
          hintmask 11001101
          78 -12 rlineto
          hintmask 11100101
          -98 callgsubr
          hintmask 11010101
          9 callsubr
          hintmask 11001101
          -91 callgsubr
          hintmask 11010101
          -21 callgsubr
          hintmask 11001101
          -297 vlineto
          hintmask 11100111
          -168 83 -108 164 -5 vhcurveto
          -36 -34 -15 -24 -35 vvcurveto
          -60 43 -29 60 37 32 14 8 17 vhcurveto
          -14 33 rlineto
          -7 -16 -20 -6 -20 hhcurveto
          -39 -16 20 27 28 16 37 25 31 hvcurveto
          142 17 74 105 156 vvcurveto
          267 vlineto
          43 5 53 2 15 vhcurveto
          79 7 rlineto
          endchar
        </CharString>
        <CharString name="Uring">
          -33 callsubr
          55 38 95 38 hstemhm
          105 95 75 49 83 47 96 72 hintmask 1010111111000000
          hintmask 1001111111000000
          -31 callgsubr
          hintmask 1010111111000000
          -20 -86 5 0 hvcurveto
          -5 -54 rlineto
          hintmask 1001111111000000
          78 -12 rlineto
          hintmask 1100111111000000
          -98 callgsubr
          hintmask 1010111111000000
          9 callsubr
          hintmask 1001111111000000
          -91 callgsubr
          hintmask 1010111111000000
          -21 callgsubr
          hintmask 1001111111000000
          -297 vlineto
          hintmask 1100111111000000
          -90 callsubr
          -343 265 105 callgsubr
          hvcurveto
          hintmask 1010111111000000
          63 callsubr
          vhcurveto
          -38 vmoveto
          -35 callsubr
        </CharString>
        <CharString name="Utilde">
          -33 callsubr
          73 82 callgsubr
          105 95 350 72 hintmask 10100011
          hintmask 10010011
          -31 callgsubr
          hintmask 10100011
          -20 -86 5 0 hvcurveto
          -5 -54 rlineto
          hintmask 10010011
          78 -12 rlineto
          hintmask 11000011
          -98 callgsubr
          hintmask 10100011
          9 callsubr
          hintmask 10010011
          -91 callgsubr
          hintmask 10100011
          -21 callgsubr
          hintmask 10010011
          -297 vlineto
          hintmask 11000011
          -90 callsubr
          -211 231 -25 callsubr
          hintmask 10101011
          -40 -85 -69 callsubr
          hintmask 10100111
          40 84 -61 callgsubr
        </CharString>
        <CharString name="V">
          133 21 -21 641 78 callgsubr
          -1 689 hintmask 10100100
          323 hmoveto
          61 hlineto
          190 545 rlineto
          hintmask 10010100
          19 54 27 45 0 vvcurveto
          68 17 rlineto
          hintmask 10001100
          -28 callgsubr
          hintmask 10100100
          -90 hlineto
          -5 -54 76 -10 rlineto
          0 -4 -42 -7 -21 vhcurveto
          -149 -430 -147 385 rlineto
          -22 57 -8 51 0 vvcurveto
          hintmask 11000100
          79 20 rlineto
          hintmask 10010100
          -4 49 rlineto
          hintmask 10001100
          0 -122 -5 -25 vhcurveto
          -109 hlineto
          hintmask 10100100
          53 callsubr
          hintmask 11000100
          0 29 -48 14 -37 vhcurveto
          endchar
        </CharString>
        <CharString name="W">
          -102 callsubr
          endchar
        </CharString>
        <CharString name="Wacute">
          -102 callsubr
          -316 254 rmoveto
          hintmask 01001010
          -229 -100 -80 callgsubr
        </CharString>
        <CharString name="Wcircumflex">
          -102 callsubr
          -435 249 rmoveto
          hintmask 01001010
          -174 -107 -70 callgsubr
        </CharString>
        <CharString name="Wdieresis">
          451 0 148 -127 -21 641 7 callgsubr
          75 119 hstemhm
          334 36 callgsubr
          hintmask 0101001110000000
          hintmask 0100101110000000
          1009 661 rmoveto
          hintmask 0100011110000000
          -28 callgsubr
          hintmask 1001001110000000
          -90 hlineto
          -5 -54 76 -10 rlineto
          0 -4 -37 -7 -26 vhcurveto
          -123 -430 -169 537 rlineto
          -53 hlineto
          -158 -537 -115 385 rlineto
          -15 51 -12 57 0 vvcurveto
          hintmask 0110001110000000
          79 20 rlineto
          hintmask 0100101110000000
          -4 49 rlineto
          hintmask 0100011110000000
          0 -122 -5 -25 vhcurveto
          -109 hlineto
          hintmask 0101001110000000
          53 callsubr
          hintmask 0110001110000000
          0 26 -43 14 -42 vhcurveto
          183 -556 rlineto
          61 hlineto
          152 506 167 -506 rlineto
          61 hlineto
          164 545 rlineto
          12 39 34 60 0 vvcurveto
          -317 240 rmoveto
          hintmask 0100101110000000
          -93 callgsubr
        </CharString>
        <CharString name="Wgrave">
          -102 callsubr
          -585 181 rmoveto
          hintmask 01001010
          -23 callgsubr
        </CharString>
        <CharString name="X">
          158 0 59 -43 -21 651 59 -42 42 5 -20 hstemhm
          18 694 hintmask 10100100
          306 355 rmoveto
          -131 -191 rlineto
          hintmask 01100100
          -17 -24 -55 -56 -24 -25 -61 -17 rcurveline
          5 -47 rlineto
          0 149 5 16 vhcurveto
          hintmask 10100100
          22 58 -1 0 hvcurveto
          7 55 -80 10 11 23 14 29 10 16 rlinecurve
          114 169 113 -159 14 -18 19 -37 12 -27 rlinecurve
          hintmask 01100100
          -66 -18 5 -47 rlineto
          0 151 5 33 15 65 -1 0 vhcurveto
          hintmask 10010100
          7 55 -79 10 -21 22 -27 30 -13 16 rlinecurve
          -169 236 129 201 15 19 41 38 23 21 rlinecurve
          69 16 -5 47 rlineto
          0 -119 -5 -53 vhcurveto
          hintmask 10001100
          -28 -52 1 0 hvcurveto
          -7 -55 rlineto
          hintmask 10100100
          78 -10 -11 -22 -13 -26 -9 -15 rlinecurve
          -97 -156 -95 133 -14 19 -17 43 -10 24 rlinecurve
          79 22 -5 47 rlineto
          hintmask 10010100
          0 -154 -5 -33 -20 -69 1 0 vhcurveto
          hintmask 10001100
          -7 -55 81 -10 rlineto
          hintmask 10100100
          17 -22 31 -41 14 -20 rrcurveto
          endchar
        </CharString>
        <CharString name="Y">
          -104 callsubr
          endchar
        </CharString>
        <CharString name="Yacute">
          -104 callsubr
          -126 254 -83 callsubr
        </CharString>
        <CharString name="Ycircumflex">
          -104 callsubr
          -245 249 -58 callsubr
        </CharString>
        <CharString name="Ydieresis">
          103 -24 callgsubr
          646 7 callgsubr
          75 119 hstemhm
          160 108 15 91 22 108 -79 callgsubr
          -363 240 52 callsubr
          hintmask 1001001111000000
          68 callgsubr
          39 -19 21 -35 hvcurveto
          endchar
        </CharString>
        <CharString name="Ygrave">
          -104 callsubr
          -395 181 rmoveto
          -23 callgsubr
        </CharString>
        <CharString name="Ytilde">
          103 -24 callgsubr
          646 7 callgsubr
          73 82 callgsubr
          283 91 -79 callgsubr
          -114 238 rmoveto
          0 -26 -51 -27 vhcurveto
          -40 -85 -69 callsubr
          hintmask 1001000110000000
          40 84 -61 callgsubr
        </CharString>
        <CharString name="Z">
          -95 callgsubr
          endchar
        </CharString>
        <CharString name="Zacute">
          -95 callgsubr
          182 252 -83 callsubr
        </CharString>
        <CharString name="Zcaron">
          -95 callgsubr
          214 247 -62 callgsubr
        </CharString>
        <CharString name="Zdotaccent">
          -3 0 59 -42 -21 532 -20 138 59 10 -20 66 129 hstemhm
          46 54 120 118 137 47 hintmask 1011011110000000
          399 646 rmoveto
          -70 -126 -190 -301 rlineto
          -30 -48 -82 -114 0 vvcurveto
          7 -57 rlineto
          348 16 callgsubr
          hintmask 0111011110000000
          19 18 15 161 -55 5 -2 -16 -9 -46 -4 -15 rlinecurve
          hintmask 1011011110000000
          -1 -7 -9 -15 -10 -13 rrcurveto
          -4 -22 -35 -5 -31 hhcurveto
          -203 hlineto
          73 132 191 303 108 155 -7 56 rlineto
          -331 3 callsubr
          hintmask 1010111110000000
          -7 -169 58 -5 2 26 7 43 4 15 rlinecurve
          16 34 rlineto
          hintmask 1011011110000000
          2 22 35 3 29 hhcurveto
          63 244 -87 callgsubr
          endchar
        </CharString>
        <CharString name="a">
          -33 callgsubr
          hstemhm
          15 511 -510 181 121 205 hintmask 10111000
          hintmask 10110110
          -75 callgsubr
          hintmask 01110100
          -48 callsubr
          hintmask 10110110
          -82 callgsubr
          hintmask 01110010
          -55 callgsubr
          hintmask 10110010
          -32 callsubr
          endchar
        </CharString>
        <CharString name="a.sups">
          -60 callsubr
        </CharString>
        <CharString name="aacute">
          -33 callgsubr
          238 -20 -94 callsubr
          -32 callsubr
          161 550 -83 callgsubr
          endchar
        </CharString>
        <CharString name="abreve">
          -33 callgsubr
          65 56 hstemhm
          16 181 -65 56 130 205 -169 56 hintmask 1011101010000000
          hintmask 1011110100000000
          -75 callgsubr
          hintmask 0111110010000000
          -48 callsubr
          hintmask 1011110100000000
          -82 callgsubr
          hintmask 0111101100000000
          -55 callgsubr
          hintmask 1011101100000000
          -32 callsubr
          161 517 45 callgsubr
          vhcurveto
          hintmask 1011101010000000
          87 callgsubr
          hvcurveto
          -56 hlineto
          -90 49 -50 90 90 49 50 90 vhcurveto
          endchar
        </CharString>
        <CharString name="acircumflex">
          -33 callgsubr
          248 -20 -94 callsubr
          -251 766 rmoveto
          -166 -169 -84 callgsubr
          -179 -195 rmoveto
          65 -193 -130 -3 rlineto
          endchar
        </CharString>
        <CharString name="acute">
          755 -20 hstem
          66 227 vstem
          246 755 -83 callgsubr
          endchar
        </CharString>
        <CharString name="acute.cap">
          539 148 hstem
          50 259 vstem
          279 687 -83 callsubr
        </CharString>
        <CharString name="adieresis">
          -33 callgsubr
          77 119 hstemhm
          16 181 -98 108 111 205 -188 108 hintmask 1011101010000000
          hintmask 1011110100000000
          -75 callgsubr
          hintmask 0111110010000000
          -48 callsubr
          hintmask 1011110100000000
          -82 callgsubr
          hintmask 0111101100000000
          -55 callgsubr
          hintmask 1011101100000000
          -32 callsubr
          196 508 79 callsubr
          hintmask 1011101010000000
          -36 18 -23 36 36 18 23 36 39 -19 21 -35 vhcurveto
          -236 hmoveto
          -100 callsubr
          endchar
        </CharString>
        <CharString name="ae">
          60 callsubr
          hstemhm
          6 184 373 42 16 45 -16 41 hintmask 0100101000100000
          hintmask 0100100010110000
          664 523 rmoveto
          -55 callsubr
          hintmask 0100101000100000
          -241 hlineto
          -23 -64 -84 callsubr
          hintmask 0100100100100000
          58 -9 rlineto
          hintmask 0010101001100000
          46 callsubr
          hintmask 0100101001100000
          -60 5 10 30 rlineto
          hintmask 0010101001100000
          46 88 rlineto
          hintmask 1000101001100000
          61 callgsubr
          hintmask 0001101000100000
          184 hlineto
          15 74 -3 0 hvcurveto
          14 14 rlineto
          hintmask 0100101000101000
          108 callsubr
          hintmask 0001101000101000
          -1 -5 -7 -12 -8 -12 rrcurveto
          hintmask 0100111000101000
          -43 callgsubr
          hintmask 0100101000110000
          -455 -199 129 callsubr
        </CharString>
        <CharString name="aeacute">
          60 callsubr
          239 -20 hstemhm
          6 184 373 42 16 45 -16 41 hintmask 0100101001010000
          hintmask 0100100011011000
          664 523 rmoveto
          -55 callsubr
          hintmask 0100101001010000
          -241 hlineto
          -23 -64 -84 callsubr
          hintmask 0100100101010000
          58 -9 rlineto
          hintmask 0010101001110000
          46 callsubr
          hintmask 0100101001110000
          -60 5 10 30 rlineto
          hintmask 0010101001110000
          46 88 rlineto
          hintmask 1000101001110000
          61 callgsubr
          hintmask 0001101001010000
          184 hlineto
          15 74 -3 0 hvcurveto
          14 14 rlineto
          hintmask 0100101001010100
          108 callsubr
          hintmask 0001101001010100
          -1 -5 -7 -12 -8 -12 rrcurveto
          hintmask 0100111001010100
          -43 callgsubr
          hintmask 0100101001011000
          -176 341 -83 callgsubr
          -326 -480 129 callsubr
        </CharString>
        <CharString name="agrave">
          -33 callgsubr
          238 -20 -94 callsubr
          -32 callsubr
          173 400 -34 callgsubr
        </CharString>
        <CharString name="amacron">
          -33 callgsubr
          79 53 -94 callsubr
          -32 callsubr
          234 391 22 callsubr
        </CharString>
        <CharString name="ampersand">
          80 -8 60 -51 50 -34 -21 280 52 164 50 hstemhm
          50 90 -30 92 149 50 36 62 hintmask 0101110110000000
          273 542 rmoveto
          hintmask 0101101110000000
          -88 -75 -35 -83 -38 16 -35 30 -39 hvcurveto
          hintmask 1001110110000000
          -68 -39 -38 -51 -69 vvcurveto
          -104 87 -57 107 73 62 23 37 46 vhcurveto
          hintmask 0101110110000000
          34 -34 7 -17 rlineto
          17 hlineto
          75 48 -5 0 hvcurveto
          hintmask 0011110110000000
          5 52 rlineto
          hintmask 0101101110000000
          -62 6 -17 11 -30 23 -5 5 rlinecurve
          -24 21 15 31 10 34 1 40 rlinecurve
          1 31 2 17 1 7 63 11 rcurveline
          -4 47 -99 -3 rlineto
          -83 hlineto
          -5 -50 54 -5 rlineto
          2 -9 6 -26 -14 vvcurveto
          -26 -4 -22 -7 -21 vhcurveto
          -122 110 -102 87 71 vvcurveto
          41 28 27 46 30 25 -10 -7 10 vhcurveto
          0 10 -33 -5 -7 -2 -25 -3 vvcurveto
          48 -3 9 117 rlineto
          9 -24 -63 17 -46 hhcurveto
          hintmask 0101110110000000
          -79 -279 rmoveto
          52 -56 70 -57 65 -58 rrcurveto
          hintmask 1001110110000000
          -26 -32 -41 -14 -52 hhcurveto
          -66 -50 42 67 39 15 33 39 30 hvcurveto
          endchar
        </CharString>
        <CharString name="aogonek">
          -23 -197 42 155 47 -30 21 callsubr
          hstemhm
          16 181 39 64 hintmask 11011110
          319 13 rmoveto
          -59 -51 -24 -26 -44 -40 callgsubr
          42 36 52 64 8 hvcurveto
          47 hlineto
          112 callsubr
          hvcurveto
          4 45 -47 7 -26 55 -159 431 -59 -8 -143 -409 rlineto
          hintmask 10111110
          -48 callsubr
          hintmask 11011110
          28 44 -1 0 hvcurveto
          4 45 -51 8 7 40 21 67 rlineto
          163 hlineto
          14 -41 rlineto
          1 -8 1 -7 -7 vvcurveto
          -35 -12 -26 -25 -22 vhcurveto
          -61 388 rmoveto
          65 -193 -130 -3 rlineto
          endchar
        </CharString>
        <CharString name="approxequal">
          0 94 82 -22 82 28 82 -22 82 hstemhm
          47 466 hintmask 01011000
          hintmask 10011000
          473 231 rmoveto
          0 -42 -55 -30 vhcurveto
          hintmask 01011000
          -54 -121 60 -70 hhcurveto
          30 callgsubr
          hintmask 10101000
          50 59 104 0 hvcurveto
          -40 203 rmoveto
          0 -42 -55 -30 vhcurveto
          -54 -121 60 -70 hhcurveto
          hintmask 01011000
          30 callgsubr
          50 59 104 0 hvcurveto
          endchar
        </CharString>
        <CharString name="aring">
          -33 callgsubr
          63 38 95 38 hstemhm
          16 181 -23 49 83 47 -35 205 hintmask 1011110110000000
          hintmask 1011111001000000
          -75 callgsubr
          hintmask 0111111010000000
          -48 callsubr
          hintmask 1011111001000000
          -82 callgsubr
          hintmask 0111110101000000
          -55 callgsubr
          hintmask 1011110101000000
          -32 callsubr
          71 546 105 callgsubr
          hvcurveto
          hintmask 1011110110000000
          63 callsubr
          vhcurveto
          -38 vmoveto
          -35 callsubr
        </CharString>
        <CharString name="aringacute">
          -33 callgsubr
          36 32 81 32 hstemhm
          16 181 -16 42 71 40 -16 205 hintmask 1011010110000000
          hintmask 1011011001000000
          -75 callgsubr
          hintmask 0111011010000000
          -48 callsubr
          hintmask 1011011001000000
          -82 callgsubr
          hintmask 0111010101000000
          -55 callgsubr
          hintmask 1011010101000000
          -32 callsubr
          65 493 rmoveto
          -51 -26 -29 -44 hvcurveto
          hintmask 1011110110000000
          109 callsubr
          vhcurveto
          71 callsubr
          88 68 callsubr
        </CharString>
        <CharString name="asciicircum">
          0 264 21 hstem
          280 615 rmoveto
          207 -302 63 44 -270 371 -270 -371 63 -44 rlineto
          endchar
        </CharString>
        <CharString name="asciitilde">
          0 175 82 -22 82 hstemhm
          47 466 hintmask 01100000
          hintmask 10100000
          473 312 rmoveto
          0 -42 -55 -30 vhcurveto
          hintmask 01100000
          -54 -121 60 -70 hhcurveto
          30 callgsubr
          hintmask 10100000
          50 59 104 0 hvcurveto
          endchar
        </CharString>
        <CharString name="asterisk">
          -151 499 -20 29 -20 hstemhm
          180 49 hintmask 01100000
          hintmask 10100000
          43 499 rmoveto
          26 -35 48 28 4 2 29 12 24 9 rlinecurve
          12 -119 43 5 rlineto
          hintmask 01100000
          55 vlineto
          4 4 32 4 25 vhcurveto
          110 -49 17 40 -49 28 -4 2 -25 19 -19 16 rlinecurve
          98 70 -26 35 -49 -28 -4 -3 -29 -11 -23 -9 rlinecurve
          -12 119 -43 -5 rlineto
          -56 vlineto
          -5 -5 -31 -4 -25 vhcurveto
          -109 50 -17 -40 48 -27 rlineto
          hintmask 10100000
          48 -38 rlineto
          endchar
        </CharString>
        <CharString name="at">
          352 -213 62 141 64 -37 -21 453 54 115 49 hstemhm
          40 91 144 88 -54 63 197 81 141 81 hintmask 1101111011000000
          hintmask 1011110111000000
          610 -4 rmoveto
          170 14 92 142 135 vvcurveto
          240 -162 140 -249 -308 -113 -220 -215 -207 90 -238 336 52 153 71 0 vhcurveto
          -16 31 rlineto
          0 -154 -40 -35 vhcurveto
          -245 -1 -90 163 221 vvcurveto
          126 45 260 285 206 124 -135 -196 -95 -34 -125 -95 -21 vhcurveto
          0 -12 71 20 vvcurveto
          154 vlineto
          134 -31 78 -134 -60 -61 -8 -16 -60 vhcurveto
          11 -135 58 3 rlineto
          36 vlineto
          7 7 30 2 10 vhcurveto
          8 16 31 11 46 hhcurveto
          75 19 -63 -75 hvcurveto
          -33 vlineto
          -33 -5 -94 -13 -52 -13 rrcurveto
          hintmask 1101111011000000
          -72 -18 -43 -36 -70 vvcurveto
          -82 53 -51 82 73 70 41 48 26 vhcurveto
          hintmask 1011111011000000
          13 -69 rlineto
          hintmask 1101111011000000
          -156 44 rmoveto
          -47 -26 27 47 28 12 31 51 13 hvcurveto
          56 14 63 9 24 4 rrcurveto
          -60 vlineto
          -65 -10 -56 -48 -67 hhcurveto
          endchar
        </CharString>
        <CharString name="atilde">
          -33 callgsubr
          87 82 callgsubr
          15 511 -510 181 121 205 hintmask 1011011000000000
          hintmask 1011010110000000
          -75 callgsubr
          hintmask 0111010100000000
          -48 callsubr
          hintmask 1011010110000000
          -82 callgsubr
          hintmask 0111010010000000
          -55 callgsubr
          hintmask 1011100010000000
          -32 callsubr
          202 518 rmoveto
          0 -26 -51 -27 vhcurveto
          83 callgsubr
          hintmask 1011011000000000
          36 -21 rlineto
          10 callgsubr
          40 74 -61 callgsubr
        </CharString>
        <CharString name="b">
          -67 -4 51 -47 47 201 51 189 48 -7 -20 24 66 callgsubr
          37 89 23 86 -68 92 hintmask 1011001001000000
          hintmask 1011001010000000
          273 536 rmoveto
          -43 -58 -7 -43 hhcurveto
          hintmask 1010101001000000
          -26 -51 -4 callsubr
          hintmask 1010011001000000
          52 -9 rlineto
          2 -13 5 -35 -19 51 callgsubr
          -5 -37 -2 -10 vhcurveto
          -54 -10 112 callgsubr
          51 4 27 vhcurveto
          55 62 -4 40 hhcurveto
          93 75 52 91 hvcurveto
          hintmask 0111001001000000
          78 -55 44 -77 12 vhcurveto
          5 vlineto
          hintmask 1011001101000000
          63 15 45 48 66 vvcurveto
          83 -72 46 -85 vhcurveto
          -73 -52 rmoveto
          2 17 19 2 20 hhcurveto
          hintmask 1011001010000000
          52 36 -36 -54 -65 -45 -34 -59 hvcurveto
          -5 hlineto
          -5 -51 rlineto
          8 hlineto
          66 58 -29 -72 -65 -41 -35 -60 hvcurveto
          hintmask 1011001101000000
          -22 -22 1 2 -18 hvcurveto
          -1 10 -3 40 33 vvcurveto
          272 vlineto
          25 3 45 2 9 vhcurveto
          endchar
        </CharString>
        <CharString name="b.sups">
          -204 444 48 8 -20 221 56 -44 -20 208 10 hstemhm
          54 71 127 80 hintmask 01101110
          1 876 rmoveto
          47 -11 rlineto
          0 6 -38 -12 vvcurveto
          hintmask 10101110
          -272 vlineto
          -12 -6 -65 0 vhcurveto
          -14 46 44 -8 44 hhcurveto
          96 54 67 94 85 -36 67 -84 -42 -26 -19 -25 -19 hvcurveto
          hintmask 01011110
          84 107 callgsubr
          -45 5 0 hvcurveto
          183 -215 rmoveto
          hintmask 10101110
          52 11 -49 -52 -59 -16 -49 -60 -16 -17 3 5 -15 hvcurveto
          -1 12 -2 27 22 vvcurveto
          51 vlineto
          46 1 19 43 44 hhcurveto
          endchar
        </CharString>
        <CharString name="backslash">
          -162 -67 840 hstem
          7 374 vstem
          381 -47 rmoveto
          -311 820 -63 -20 310 -820 rlineto
          endchar
        </CharString>
        <CharString name="bar">
          117 callgsubr
          -122 rmoveto
          874 vlineto
          -65 8 rlineto
          -873 vlineto
          endchar
        </CharString>
        <CharString name="braceleft">
          -288 -121 39 2 -21 407 29 376 55 -43 43 -24 24 hstemhm
          37 83 -13 60 -47 56 hintmask 0111000100000000
          107 261 rmoveto
          -120 -30 -242 0 vhcurveto
          hintmask 1011000100000000
          20 -20 rlineto
          69 93 18 callgsubr
          3 43 -87 12 rlineto
          0 -8 90 20 60 9 124 60 vvcurveto
          hintmask 0111000010000000
          -20 18 -36 14 0 vvcurveto
          9 vlineto
          0 36 14 20 18 vhcurveto
          hintmask 0111000100000000
          60 -9 124 60 vvcurveto
          20 8 90 0 vhcurveto
          hintmask 0110100100000000
          87 12 rlineto
          hintmask 0111000100000000
          -3 43 rlineto
          0 -93 -4 -69 vhcurveto
          hintmask 0110010100000000
          -20 -20 rlineto
          0 30 -242 -120 vvcurveto
          hintmask 0111001000000000
          -20 -10 -48 -25 -10 hhcurveto
          -4 -29 rlineto
          hintmask 0111000100000000
          14 48 -25 -20 10 hvcurveto
          endchar
        </CharString>
        <CharString name="braceright">
          -288 -80 -21 407 29 376 51 -39 43 -24 20 hstemhm
          105 60 -13 83 hintmask 11001100
          165 380 rmoveto
          120 30 242 0 vhcurveto
          -20 20 rlineto
          hintmask 11010100
          -69 -93 66 callsubr
          -43 rlineto
          hintmask 11100100
          87 -12 rlineto
          0 8 -90 -20 -60 -9 -124 -60 vvcurveto
          hintmask 11001010
          20 -18 36 -14 0 vvcurveto
          -9 vlineto
          0 -36 -14 -20 -18 vhcurveto
          hintmask 11001100
          -60 9 -124 -60 vvcurveto
          -20 -8 -90 0 vhcurveto
          -87 -12 3 -43 rlineto
          0 93 4 69 vhcurveto
          20 20 rlineto
          0 -30 242 120 vvcurveto
          hintmask 11001010
          20 10 48 25 10 hhcurveto
          4 29 rlineto
          hintmask 11001100
          -14 -48 25 20 -10 hvcurveto
          endchar
        </CharString>
        <CharString name="bracketleft">
          -295 -102 20 793 55 -43 43 -23 23 hstemhm
          85 72 hintmask 11001000
          85 90 rmoveto
          -20 -10 -172 0 vhcurveto
          19 -19 rlineto
          69 89 18 callgsubr
          3 43 -84 12 rlineto
          0 -14 60 50 vvcurveto
          561 vlineto
          50 14 60 0 vhcurveto
          hintmask 10101000
          84 12 rlineto
          hintmask 11001000
          -3 43 rlineto
          0 -89 -4 -69 vhcurveto
          hintmask 10011000
          -19 -19 rlineto
          0 10 -172 -20 vvcurveto
          endchar
        </CharString>
        <CharString name="bracketright">
          -295 -81 -21 813 51 -39 43 -23 19 -19 23 hstemhm
          108 72 hintmask 10010100
          180 551 rmoveto
          20 10 172 0 vhcurveto
          -19 19 rlineto
          hintmask 10001100
          -69 -89 -30 callsubr
          hintmask 10100100
          -3 -43 rlineto
          hintmask 11000100
          84 -12 rlineto
          0 14 -60 -50 vvcurveto
          -561 vlineto
          -50 -14 -60 0 vhcurveto
          -84 -12 3 -43 rlineto
          0 89 4 69 vhcurveto
          19 19 rlineto
          0 -10 172 20 vvcurveto
          endchar
        </CharString>
        <CharString name="breve">
          587 56 hstem
          41 111 callsubr
          vstem
          263 727 -77 callgsubr
        </CharString>
        <CharString name="breve.cap">
          547 56 hstem
          41 111 callsubr
          vstem
          263 687 -77 callgsubr
        </CharString>
        <CharString name="brokenbar">
          117 callgsubr
          392 rmoveto
          360 vlineto
          -65 8 rlineto
          -360 vlineto
          -188 vmoveto
          -325 vlineto
          65 -9 rlineto
          327 vlineto
          endchar
        </CharString>
        <CharString name="bullet">
          -330 167 173 hstem
          35 160 vstem
          115 340 rmoveto
          -51 -29 -36 -51 -51 29 -35 51 51 29 35 51 55 -30 32 -50 hvcurveto
          endchar
        </CharString>
        <CharString name="c">
          92 callgsubr
          hstemhm
          38 100 260 55 -44 52 hintmask 11110000
          hintmask 11101000
          -81 callgsubr
          hintmask 11110000
          30 33 -6 -8 31 hvcurveto
          5 -13 5 -16 -6 vvcurveto
          -39 vlineto
          51 -3 8 120 rlineto
          12 -49 -49 13 -65 hhcurveto
          -170 -86 -112 -164 -163 86 -112 170 hvcurveto
          hintmask 11101000
          64 57 13 12 49 hvcurveto
          endchar
        </CharString>
        <CharString name="c.sups">
          -263 442 51 221 43 0 -20 hstemhm
          24 81 117 49 hintmask 11011000
          171 757 rmoveto
          -94 -53 -61 -96 -99 51 -59 98 50 41 23 16 18 hvcurveto
          -20 33 rlineto
          0 -33 -21 -46 -55 -23 42 65 69 20 45 50 15 15 -5 -12 14 vhcurveto
          hintmask 10111000
          2 -8 1 -8 1 -6 -1 -29 rcurveline
          46 -1 8 94 rlineto
          hintmask 11011000
          5 -16 -42 13 -47 hhcurveto
          endchar
        </CharString>
        <CharString name="cacute">
          92 callgsubr
          215 -86 callsubr
          -89 741 -83 callgsubr
          endchar
        </CharString>
        <CharString name="caron">
          765 -20 hstem
          14 332 vstem
          47 765 -79 callsubr
        </CharString>
        <CharString name="caron.cap">
          536 146 hstem
          6 348 vstem
          331 682 -62 callgsubr
        </CharString>
        <CharString name="ccaron">
          92 callgsubr
          225 -86 callsubr
          -305 751 -79 callsubr
        </CharString>
        <CharString name="ccedilla">
          -60 34 callsubr
          -14 -21 84 52 444 54 hstemhm
          38 100 132 39 37 65 -13 55 -44 52 hintmask 1010111101000000
          hintmask 1010111100100000
          -81 callgsubr
          hintmask 1001111101000000
          30 33 -6 -8 31 hvcurveto
          5 -13 5 -16 -6 vvcurveto
          -39 vlineto
          51 -3 8 120 rlineto
          12 -49 -49 13 -65 hhcurveto
          -170 -86 -112 -164 -157 79 -109 157 -8 hvcurveto
          -7 -84 11 -10 rlineto
          hintmask 1010111110000000
          -13 callgsubr
          hintmask 0110111101000000
          -13 -35 rlineto
          hintmask 1010111110000000
          2 callsubr
          10 49 rlineto
          hintmask 1010111100100000
          53 3 49 10 42 11 rrcurveto
          endchar
        </CharString>
        <CharString name="ccircumflex">
          92 callgsubr
          225 -86 callsubr
          -172 751 rmoveto
          -166 -169 29 callsubr
        </CharString>
        <CharString name="cdotaccent">
          92 callgsubr
          51 129 hstemhm
          38 100 95 118 47 55 -44 52 hintmask 11111100
          hintmask 11111010
          -81 callgsubr
          hintmask 11111100
          30 33 -6 -8 31 hvcurveto
          5 -13 5 -16 -6 vvcurveto
          -39 vlineto
          51 -3 8 120 rlineto
          12 -49 -49 13 -65 hhcurveto
          -170 -86 -112 -164 -163 86 -112 170 hvcurveto
          hintmask 11111010
          64 57 13 12 49 hvcurveto
          -172 706 -87 callgsubr
          endchar
        </CharString>
        <CharString name="cedilla">
          34 callsubr
          -44 113 -83 -21 hstemhm
          230 65 hintmask 10100100
          hintmask 10010100
          208 10 rmoveto
          -48 hlineto
          hintmask 10001100
          -9 -104 11 -10 rlineto
          hintmask 10100100
          -13 callgsubr
          hintmask 01100100
          -13 -35 rlineto
          hintmask 10100100
          2 callsubr
          endchar
        </CharString>
        <CharString name="cent">
          -77 522 57 -34 -20 hstemhm
          40 94 101 35 -22 34 -22 34 65 63 hintmask 01101010
          hintmask 01110010
          268 -42 rmoveto
          4 109 rlineto
          102 1 64 53 0 vvcurveto
          -28 47 rlineto
          hintmask 10101010
          0 -60 -35 -75 -1 vhcurveto
          15 390 21 -3 19 -8 22 -18 rlinecurve
          4 -14 3 -13 -7 vvcurveto
          -36 vlineto
          58 -3 rlineto
          hintmask 01101010
          10 125 rlineto
          hintmask 10100110
          -52 17 -36 14 -46 3 4 107 rcurveline
          -34 3 -5 -109 rlineto
          -145 -5 -73 -103 -149 vvcurveto
          hintmask 10110010
          -142 65 -99 132 -14 vhcurveto
          -4 -107 rlineto
          -99 362 rmoveto
          95 32 95 90 9 vhcurveto
          hintmask 01101010
          -16 -387 rlineto
          hintmask 10110010
          -77 16 -29 83 89 vvcurveto
          endchar
        </CharString>
        <CharString name="circumflex">
          765 -20 hstem
          14 332 vstem
          180 765 rmoveto
          -166 -169 29 callsubr
        </CharString>
        <CharString name="circumflex.cap">
          536 146 hstem
          6 348 vstem
          180 682 -58 callsubr
        </CharString>
        <CharString name="colon">
          -357 -10 129 224 129 hstem
          40 118 vstem
          99 472 -87 callgsubr
          -353 vmoveto
          -38 -21 -27 -38 62 callgsubr
          -60 callgsubr
          endchar
        </CharString>
        <CharString name="comma">
          125 callsubr
          hstemhm
          105 70 hintmask 10110000
          105 -10 126 callsubr
          hintmask 11010000
          88 callsubr
          hintmask 10110000
          -36 19 -31 36 -3 vhcurveto
          endchar
        </CharString>
        <CharString name="copyright">
          285 -115 44 100 47 347 47 101 44 hstemhm
          57 44 124 83 206 44 -36 43 178 45 hintmask 1111111010000000
          hintmask 1111110110000000
          567 49 rmoveto
          -3 103 -42 -1 rlineto
          0 0 -25 -1 -8 vhcurveto
          -5 -4 -16 -5 -11 vhcurveto
          -6 -25 -32 -4 -24 hhcurveto
          -82 -41 77 97 97 41 76 82 hvcurveto
          hintmask 1111111010000000
          23 29 -5 -6 24 hvcurveto
          3 -9 4 -14 -5 vvcurveto
          -32 vlineto
          41 -3 7 101 rlineto
          9 -40 -40 11 -52 hhcurveto
          -136 -69 -90 -131 -131 69 -89 136 hvcurveto
          hintmask 1111110110000000
          52 45 11 9 40 hvcurveto
          hintmask 1111111010000000
          221 201 -18 callsubr
          endchar
        </CharString>
        <CharString name="d">
          126 callgsubr
          14 callgsubr
          257 95 hintmask 10011100
          116 callgsubr
          hintmask 10101100
          38 callsubr
          hintmask 01011100
          24 callgsubr
          47 58 -5 37 hhcurveto
          hintmask 10011100
          7 callsubr
          endchar
        </CharString>
        <CharString name="d.sups">
          -195 444 56 -50 43 214 50 144 10 hstemhm
          23 81 126 71 hintmask 01111100
          346 489 rmoveto
          -39 41 callsubr
          236 107 callgsubr
          -49 5 0 hvcurveto
          -4 -40 50 -11 rlineto
          0 6 -38 -12 vvcurveto
          -66 vlineto
          6 -24 -18 2 -20 hhcurveto
          -91 -54 -59 -100 hvcurveto
          hintmask 10111100
          -97 45 -57 76 37 36 20 33 20 vhcurveto
          hintmask 01111100
          6 -47 rlineto
          69 30 -3 0 hvcurveto
          hintmask 10111100
          -112 139 rmoveto
          -55 -2 -23 -31 -40 hhcurveto
          -40 -21 36 66 71 23 34 48 18 17 -4 -9 20 hvcurveto
          endchar
        </CharString>
        <CharString name="dagger">
          -56 -79 -21 594 124 callsubr
          hintmask 10111000
          277 514 rmoveto
          71 callgsubr
          -91 vmoveto
          -50 -33 -455 116 callsubr
          487 20 vvcurveto
          hintmask 11011000
          -70 71 rmoveto
          hintmask 10111000
          -63 4 -105 11 0 vvcurveto
          -18 -19 rlineto
          hintmask 11011000
          100 callsubr
          hmoveto
          63 -4 105 73 callgsubr
          -145 -18 -25 -1 vhcurveto
          endchar
        </CharString>
        <CharString name="daggerdbl">
          -56 -79 -21 413 110 71 124 callsubr
          hintmask 11011100
          227 223 rmoveto
          -50 -33 -255 116 callsubr
          287 20 vvcurveto
          291 vmoveto
          71 callgsubr
          hintmask 00100100
          70 -71 rmoveto
          63 -4 105 73 callgsubr
          -145 -18 -25 -1 vhcurveto
          -90 hmoveto
          hintmask 00010100
          -63 4 -105 11 0 vvcurveto
          -18 -19 rlineto
          hintmask 01100100
          100 callsubr
          -200 rmoveto
          63 -4 65 73 callgsubr
          -105 -18 -25 -1 vhcurveto
          -90 hmoveto
          -63 4 -65 11 0 vvcurveto
          -18 -19 10 -60 6 -6 rlineto
          0 105 18 25 1 vhcurveto
          70 70 rmoveto
          110 -50 -110 vlineto
          endchar
        </CharString>
        <CharString name="dcaron">
          126 callgsubr
          229 66 callgsubr
          257 95 hintmask 10011110
          116 callgsubr
          hintmask 10101110
          38 callsubr
          hintmask 01011110
          24 callgsubr
          47 58 -5 37 hhcurveto
          hintmask 10011110
          7 callsubr
          -134 280 -79 callsubr
        </CharString>
        <CharString name="dcroat">
          -73 callsubr
        </CharString>
        <CharString name="degree">
          368 51 196 51 hstem
          30 77 147 77 vstem
          331 517 rmoveto
          92 -58 57 -93 -92 -58 -57 -92 -92 58 -57 92 93 58 57 92 vhcurveto
          -224 hmoveto
          52 21 46 53 52 21 -46 -52 -52 -21 -46 -52 -53 -21 46 52 vhcurveto
          endchar
        </CharString>
        <CharString name="dieresis">
          594 119 hstem
          8 36 callgsubr
          vstem
          298 713 rmoveto
          -93 callgsubr
        </CharString>
        <CharString name="dieresis.cap">
          554 119 hstem
          8 36 callgsubr
          vstem
          298 673 rmoveto
          -93 callgsubr
        </CharString>
        <CharString name="divide">
          0 6 129 78 68 78 129 hstem
          228 118 cntrmask 11100000
          52 279 rmoveto
          122 callsubr
          -220 204 -87 callgsubr
          -353 vmoveto
          -38 -21 -27 -38 62 callgsubr
          -60 callgsubr
          endchar
        </CharString>
        <CharString name="dollar">
          -39 -71 -21 24 -21 79 58 445 -20 136 52 95 -20 23 -20 hstemhm
          54 93 -90 68 102 35 -25 33 -20 33 -24 34 80 98 hintmask 0111101100100100
          hintmask 1011101101000100
          261 -92 rmoveto
          3 82 rlineto
          115 4 92 60 114 vvcurveto
          107 -85 46 -78 43 vhcurveto
          hintmask 0111101100010100
          -29 15 10 228 22 -3 20 -5 26 -10 rlinecurve
          6 -21 7 -19 -9 vvcurveto
          -1 -47 54 -6 15 144 rlineto
          hintmask 0111110100001100
          -47 12 -52 12 -48 4 4 97 rcurveline
          hintmask 0111101100001100
          -34 3 -4 -98 rlineto
          -2 hlineto
          -116 -85 -59 -109 -101 84 -51 74 -35 hvcurveto
          hintmask 0111101010100100
          30 -14 -10 -244 -38 3 -32 10 -26 10 rlinecurve
          -4 20 -6 27 11 vvcurveto
          1 54 -62 6 -15 -150 rlineto
          hintmask 0111101011000100
          0 69 -42 110 -6 vhcurveto
          -3 -80 rlineto
          147 247 rmoveto
          -67 -42 -38 -65 -5 vhcurveto
          hintmask 0111101100100100
          9 227 rlineto
          hintmask 0111101011000100
          56 -29 42 -33 -55 vvcurveto
          hintmask 0111101100010100
          -226 352 rmoveto
          65 47 34 58 vhcurveto
          3 hlineto
          -9 -213 rlineto
          -55 30 -44 31 53 vvcurveto
          endchar
        </CharString>
        <CharString name="dotaccent">
          591 84 callsubr
          720 -87 callgsubr
          endchar
        </CharString>
        <CharString name="dotaccent.cap">
          551 84 callsubr
          680 -87 callgsubr
          endchar
        </CharString>
        <CharString name="dotbelowcomb">
          -200 84 callsubr
          -71 -87 callgsubr
          endchar
        </CharString>
        <CharString name="dotlessi">
          -53 callgsubr
        </CharString>
        <CharString name="dotlessj">
          -29 callgsubr
        </CharString>
        <CharString name="e">
          -76 0 51 -33 -21 250 50 182 50 -48 47 8 66 callgsubr
          128 59 callsubr
          hintmask 1011001100000000
          hintmask 0110101100000000
          -92 callgsubr
          hintmask 1011001101000000
          -46 callgsubr
          hintmask 0111001101000000
          15 14 rlineto
          hintmask 1011001101000000
          -107 callgsubr
          97 hlineto
          hintmask 1011001110000000
          -86 callgsubr
          hintmask 1010011110000000
          -55 callsubr
          -186 hlineto
          hintmask 1011001100000000
          75 callsubr
          endchar
        </CharString>
        <CharString name="e.sups">
          -246 442 51 96 42 84 42 hstem
          24 81 107 80 vstem
          167 757 rmoveto
          -90 -53 -61 -98 -96 53 -60 94 58 41 24 17 18 hvcurveto
          -20 32 rlineto
          0 -34 -22 -49 -51 -25 35 61 -4 vhcurveto
          175 hlineto
          12 22 rlineto
          90 3 -41 56 -87 hhcurveto
          -5 -42 rmoveto
          34 16 -27 -45 -2 -1 -6 0 hvcurveto
          -106 -8 rlineto
          48 3 13 40 41 hhcurveto
          endchar
        </CharString>
        <CharString name="eacute">
          -62 callsubr
          239 -20 -107 callsubr
          276 222 rmoveto
          -180 -150 rlineto
          hintmask 1010010111000000
          102 callgsubr
        </CharString>
        <CharString name="ebreve">
          -62 callsubr
          66 56 hstemhm
          102 56 -50 87 128 42 -41 56 0 46 -27 41 hintmask 1011000101100000
          hintmask 0110100101100000
          -92 callgsubr
          hintmask 1011000101100100
          -46 callgsubr
          hintmask 0111000101100100
          15 14 rlineto
          hintmask 1011000101100100
          -107 callgsubr
          97 hlineto
          hintmask 1011000101101000
          -86 callgsubr
          hintmask 1010001101101000
          -55 callsubr
          -186 hlineto
          hintmask 1011000101100000
          75 callsubr
          276 189 45 callgsubr
          vhcurveto
          hintmask 1010010101010000
          87 callgsubr
          hvcurveto
          -56 hlineto
          -90 49 -50 90 vhcurveto
          hintmask 1011000110010000
          90 49 50 90 hvcurveto
          endchar
        </CharString>
        <CharString name="ecaron">
          -62 callsubr
          249 -20 -107 callsubr
          60 232 rmoveto
          -33 -32 rlineto
          hintmask 1010010111000000
          166 -169 166 169 -33 32 -74 -61 -59 -43 -25 18 -27 19 -7 6 rlinecurve
          endchar
        </CharString>
        <CharString name="ecircumflex">
          -62 callsubr
          249 -20 -107 callsubr
          193 232 rmoveto
          -166 -169 rlineto
          hintmask 1010010111000000
          29 callsubr
        </CharString>
        <CharString name="edieresis">
          -62 callsubr
          78 119 hstemhm
          69 108 -69 87 110 108 -90 59 callsubr
          hintmask 1011000101010000
          hintmask 0110100101010000
          -92 callgsubr
          hintmask 1011000101010100
          -46 callgsubr
          hintmask 0111000101010100
          15 14 rlineto
          hintmask 1011000101010100
          -107 callgsubr
          97 hlineto
          hintmask 1011000101011000
          -86 callgsubr
          hintmask 1010001101011000
          -55 callsubr
          -186 hlineto
          hintmask 1011000101010000
          75 callsubr
          311 180 79 callsubr
          hintmask 1010010101100000
          -36 18 -23 36 36 18 23 36 -22 callsubr
          hvcurveto
          hintmask 1011000110010000
          36 18 23 36 -20 callgsubr
          hvcurveto
          endchar
        </CharString>
        <CharString name="edotaccent">
          -62 callsubr
          75 129 14 callgsubr
          -12 118 22 59 callsubr
          hintmask 1011000110100000
          hintmask 0110100110100000
          -92 callgsubr
          hintmask 1011000110101000
          -46 callgsubr
          hintmask 0111000110101000
          15 14 rlineto
          hintmask 1011000110101000
          -107 callgsubr
          97 hlineto
          hintmask 1011000110110000
          -86 callgsubr
          hintmask 1010001110110000
          -55 callsubr
          -186 hlineto
          hintmask 1011000110100000
          75 callsubr
          194 187 rmoveto
          -38 -21 -27 -38 hvcurveto
          hintmask 1010010110100000
          62 callgsubr
          vhcurveto
          hintmask 1011000101100000
          -60 callgsubr
          endchar
        </CharString>
        <CharString name="egrave">
          -62 callsubr
          239 -20 -107 callsubr
          288 72 rmoveto
          -180 150 rlineto
          hintmask 1010010111000000
          -47 -60 rlineto
          0 106 -60 15 -11 vhcurveto
          73 -60 rlineto
          endchar
        </CharString>
        <CharString name="eight">
          -69 callgsubr
        </CharString>
        <CharString name="eight.dnom">
          -202 -6 69 callgsubr
          328 -52 callsubr
        </CharString>
        <CharString name="eight.numr">
          -222 294 40 176 -20 44 -20 162 115 callsubr
          hintmask 10111001
          hintmask 11010101
          39 618 rmoveto
          -54 33 -31 39 -23 vhcurveto
          hintmask 11011001
          95 callgsubr
          vhcurveto
          hintmask 10111001
          57 -40 33 -45 24 vhcurveto
          hintmask 10111010
          115 callgsubr
          hintmask 11010101
          -68 -62 -36 -62 hvcurveto
          hintmask 10111001
          52 callgsubr
          hintmask 10110110
          47 callgsubr
        </CharString>
        <CharString name="eight.osf">
          -69 callgsubr
        </CharString>
        <CharString name="eight.sinf">
          -202 -106 69 callgsubr
          228 -52 callsubr
        </CharString>
        <CharString name="eight.sups">
          -222 444 40 342 115 callsubr
          hintmask 11100100
          hintmask 11010100
          39 768 rmoveto
          -54 33 -31 39 -23 vhcurveto
          hintmask 11100100
          95 callgsubr
          57 -40 33 -45 24 vhcurveto
          hintmask 11101000
          115 callgsubr
          hintmask 11010100
          -68 -62 -36 -62 hvcurveto
          hintmask 11100100
          52 callgsubr
          hintmask 11011000
          47 callgsubr
        </CharString>
        <CharString name="eight.tf">
          -68 callgsubr
        </CharString>
        <CharString name="eight.tosf">
          -68 callgsubr
        </CharString>
        <CharString name="ellipsis">
          43 127 callgsubr
          76 122 cntrmask 01110000
          26 callgsubr
          198 hmoveto
          -39 -22 -28 -39 -39 22 -27 39 39 22 27 39 42 -23 25 -38 hvcurveto
          endchar
        </CharString>
        <CharString name="emacron">
          -62 callsubr
          80 53 -107 callsubr
          349 63 rmoveto
          5 53 rlineto
          hintmask 1010010111000000
          -322 -53 hlineto
          endchar
        </CharString>
        <CharString name="emdash">
          446 216 75 hstem
          0 1006 vstem
          2 216 rmoveto
          999 hlineto
          5 75 rlineto
          -1006 hlineto
          endchar
        </CharString>
        <CharString name="endash">
          -56 216 75 hstem
          0 504 vstem
          2 216 110 callsubr
        </CharString>
        <CharString name="eng">
          -76 -197 42 152 54 -51 51 196 50 182 50 -48 47 8 66 callgsubr
          18 64 46 59 callsubr
          hintmask 1011100101000000
          hintmask 1101010101000000
          -92 callgsubr
          hintmask 1011100111000000
          24 callgsubr
          147 38 callgsubr
          hintmask 1101100111010000
          40 35 59 91 vhcurveto
          16 hlineto
          hintmask 1011100101010000
          15 14 -107 callgsubr
          hintmask 1011100101100000
          97 hlineto
          22 24 -2 -1 16 hvcurveto
          7 -9 6 -9 -5 vvcurveto
          4 -11 3 -19 1 -12 49 4 rcurveline
          hintmask 1011001101100000
          -5 108 -55 callsubr
          hintmask 1011100101000000
          -186 hlineto
          75 callsubr
          endchar
        </CharString>
        <CharString name="eogonek">
          73 -73 callgsubr
          286 -384 rlineto
          -7 -23 -53 -110 0 vvcurveto
          31 -19 43 51 58 74 -2 22 rlinecurve
          0 1 163 33 vvcurveto
          207 vlineto
          24 7 39 3 13 vhcurveto
          hintmask 0010100110000000
          58 9 rlineto
          endchar
        </CharString>
        <CharString name="equal">
          0 119 68 122 68 hstem
          52 455 vstem
          507 312 rmoveto
          66 -455 -71 vlineto
          -122 vmoveto
          122 callsubr
          endchar
        </CharString>
        <CharString name="estimated">
          237 -12 20 303 18 302 20 hstem
          40 135 468 134 vstem
          180 311 rmoveto
          597 8 hlineto
          184 -165 148 -203 -203 -166 -148 -184 -183 166 -148 203 118 107 51 78 67 vhcurveto
          -54 hlineto
          -67 -57 -85 -42 -95 hhcurveto
          -89 -81 37 60 -56 hvcurveto
          -5 6 -4 7 8 vvcurveto
          181 vlineto
          3 2 1 3 vhcurveto
          463 205 rmoveto
          -182 vlineto
          -3 -2 -2 -3 vhcurveto
          -458 hlineto
          -3 -2 2 3 hvcurveto
          178 vlineto
          9 4 8 6 6 vhcurveto
          59 57 79 37 89 hhcurveto
          87 79 -36 -57 57 hvcurveto
          6 -6 4 -7 -9 vvcurveto
          endchar
        </CharString>
        <CharString name="eth">
          -73 callsubr
        </CharString>
        <CharString name="etilde">
          -62 callsubr
          88 68 -27 68 14 callgsubr
          128 59 callsubr
          hintmask 1011000011100000
          hintmask 0110100011100000
          -92 callgsubr
          hintmask 1011000011101000
          -46 callgsubr
          hintmask 0111000011101000
          15 14 rlineto
          hintmask 1011000011101000
          -107 callgsubr
          97 hlineto
          hintmask 1011000011110000
          -86 callgsubr
          hintmask 1010001011110000
          -55 callsubr
          -186 hlineto
          hintmask 1011000011100000
          75 callsubr
          320 190 -25 callsubr
          hintmask 1010010101100000
          100 callgsubr
          hintmask 1011000011100000
          10 callgsubr
          40 74 -61 callgsubr
        </CharString>
        <CharString name="exclam">
          -331 -10 129 594 7 0 -20 hstemhm
          70 118 -100 75 -4 7 hintmask 10101000
          hintmask 10110000
          129 72 callgsubr
          hintmask 10101000
          37 233 rmoveto
          0 -3 55 30 vvcurveto
          157 25 237 0 vhcurveto
          -19 18 rlineto
          hintmask 11001000
          -90 -7 9 -427 rlineto
          -30 -1 -36 0 vhcurveto
          hintmask 10100100
          39 27 -2 -1 6 hvcurveto
          endchar
        </CharString>
        <CharString name="exclamdown">
          -331 -206 -21 601 129 hstemhm
          41 118 -96 7 -4 75 hintmask 11001000
          hintmask 11100000
          100 503 -87 callgsubr
          hintmask 11001000
          -37 -233 rmoveto
          0 3 -55 -30 vvcurveto
          -157 -25 -237 0 vhcurveto
          19 -18 90 7 -9 427 rlineto
          30 1 36 0 vhcurveto
          hintmask 11010000
          -39 -27 2 1 -6 hvcurveto
          endchar
        </CharString>
        <CharString name="f">
          -107 -24 callsubr
          244 50 7 46 136 50 -48 47 5 -20 23 66 callgsubr
          128 42 15 46 hintmask 1010100011000000
          hintmask 1010000111100000
          409 536 rmoveto
          0 -73 -7 -16 vhcurveto
          hintmask 1010100011000000
          -186 hlineto
          -22 -64 -84 callsubr
          hintmask 1010001011000000
          57 -9 rlineto
          hintmask 0110010011000000
          2 -10 5 -35 54 callsubr
          -5 -38 -2 -9 vhcurveto
          -58 15 callsubr
          23 71 68 -4 0 vhcurveto
          5 49 rlineto
          hintmask 1010100011000000
          -77 5 rlineto
          -2 12 -4 36 34 vvcurveto
          hintmask 0110100011000000
          107 vlineto
          hintmask 1010100011000000
          1 11 12 0 6 hhcurveto
          37 hlineto
          16 43 18 callgsubr
          7 -48 41 4 rlineto
          0 -2 50 37 vvcurveto
          15 1 48 0 vhcurveto
          -40 3 -7 -48 rlineto
          hintmask 1001100011000000
          0 -27 -7 -16 vhcurveto
          -53 hlineto
          -6 -11 0 1 -12 hvcurveto
          114 vlineto
          hintmask 1010100011000000
          22 4 37 1 15 vhcurveto
          97 hlineto
          22 24 -2 -2 17 120 callsubr
          -5 vvcurveto
          4 -11 3 -19 1 -12 rrcurveto
          hintmask 1010100011100000
          49 4 -5 108 rlineto
          endchar
        </CharString>
        <CharString name="f.sups">
          -331 450 43 218 40 7 -20 139 43 hstemhm
          72 71 71 44 hintmask 10111100
          183 920 rmoveto
          -70 -41 -46 -66 hvcurveto
          -50 vlineto
          hintmask 11011100
          -12 -6 -13 -2 -18 -6 2 -33 rcurveline
          41 -168 hlineto
          -12 -6 -38 0 vhcurveto
          -40 -8 106 callgsubr
          43 3 22 61 45 123 callgsubr
          42 -56 119 callgsubr
          150 72 vlineto
          4 40 rlineto
          -76 46 hlineto
          51 4 29 42 7 8 -1 -2 5 vhcurveto
          2 -10 3 -13 -6 vvcurveto
          -25 vlineto
          40 -2 8 94 rlineto
          hintmask 10111100
          0 -44 8 -35 vhcurveto
          endchar
        </CharString>
        <CharString name="five">
          -98 -84 91 callgsubr
          hstem
          61 72 199 95 vstem
          157 652 -17 callgsubr
          -6 67 rlineto
          endchar
        </CharString>
        <CharString name="five.dnom">
          -238 183 53 108 67 hstem
          52 54 104 77 vstem
          113 411 46 callgsubr
          -46 114 callgsubr
          61 42 callgsubr
        </CharString>
        <CharString name="five.numr">
          -257 477 49 105 73 -17 11 hstemhm
          46 54 100 77 hintmask 11011000
          107 698 rmoveto
          hintmask 10111000
          15 callgsubr
          hintmask 11011000
          77 callsubr
        </CharString>
        <CharString name="five.osf">
          -98 -208 91 callgsubr
          10 -20 hstemhm
          61 72 199 95 hintmask 11101100
          157 528 -17 callgsubr
          hintmask 11011100
          -6 67 rlineto
          endchar
        </CharString>
        <CharString name="five.sinf">
          -238 83 53 108 67 hstem
          53 54 104 77 vstem
          114 311 46 callgsubr
          -48 114 callgsubr
          63 42 callgsubr
        </CharString>
        <CharString name="five.sups">
          -257 627 49 105 67 hstem
          46 54 100 77 vstem
          107 848 rmoveto
          15 callgsubr
          77 callsubr
        </CharString>
        <CharString name="five.tf">
          -50 -84 91 callgsubr
          hstem
          72 72 220 95 vstem
          169 652 -17 callsubr
          -6 67 rlineto
          endchar
        </CharString>
        <CharString name="five.tosf">
          -50 -208 91 callgsubr
          10 -20 hstemhm
          73 72 220 95 hintmask 11101100
          170 528 -17 callsubr
          hintmask 11011100
          -6 67 rlineto
          endchar
        </CharString>
        <CharString name="florin">
          -195 -194 53 581 54 223 53 -10 -20 hstemhm
          103 80 -69 80 hintmask 11101000
          96 10 rmoveto
          -90 -3 -7 -61 -89 hhcurveto
          -2 -53 rlineto
          114 63 68 105 4 hvcurveto
          16 461 rlineto
          135 hlineto
          7 54 rlineto
          hintmask 11100100
          -140 hlineto
          2 72 rlineto
          90 3 7 61 90 hhcurveto
          7 12 -1 -1 7 hvcurveto
          7 -20 5 -22 -9 vvcurveto
          -2 -36 53 -3 rlineto
          hintmask 11011000
          16 135 rlineto
          hintmask 11100100
          0 -62 10 -41 -115 -63 -68 -105 -4 vhcurveto
          -3 -86 rlineto
          hintmask 11101000
          -23 -14 -24 -4 -34 -11 2 -42 rcurveline
          77 hlineto
          endchar
        </CharString>
        <CharString name="foundryicon">
          164 61 152 52 157 135 87 hstem
          88 91 74 67 74 65 142 70 vstem
          591 61 rmoveto
          52 28 28 52 hvcurveto
          423 vlineto
          52 -28 28 -52 vhcurveto
          -423 hlineto
          -52 -28 -28 -52 hvcurveto
          -423 vlineto
          -52 28 -28 52 vhcurveto
          148 403 rmoveto
          45 33 -31 -42 hvcurveto
          -178 -74 136 vlineto
          38 -14 18 -29 -18 -6 -3 -9 vhcurveto
          -180 -74 344 74 -116 vlineto
          -6 2 -3 4 3 3 2 2 3 vhcurveto
          155 -14 rmoveto
          18 vlineto
          89 56 rlineto
          21 -28 hlineto
          -6 4 -4 6 vhcurveto
          58 -36 -58 hlineto
          -7 -3 -4 -6 hvcurveto
          -90 vlineto
          -40 12 -17 29 8 9 1 3 9 vhcurveto
          -25 vlineto
          -63 -37 rlineto
          -45 -33 31 42 hvcurveto
          132 vlineto
          7 -3 3 -7 vhcurveto
          endchar
        </CharString>
        <CharString name="four">
          -31 -24 callgsubr
          206 54 hstemhm
          308 78 hintmask 10110000
          365 739 rmoveto
          -360 -485 44 -53 rlineto
          259 123 callsubr
          -103 -16 5 -50 rlineto
          0 118 5 20 vhcurveto
          hintmask 10110000
          80 50 -5 0 hvcurveto
          7 59 rlineto
          hintmask 01110000
          -83 7 rlineto
          hintmask 10110000
          -2 14 -5 50 42 vvcurveto
          34 92 67 vlineto
          -92 -6 rlineto
          164 vlineto
          -78 -27 rlineto
          -142 vlineto
          -200 -3 187 280 rlineto
          15 23 124 131 0 vvcurveto
          endchar
        </CharString>
        <CharString name="four.dnom">
          -193 0 78 callsubr
          hstemhm
          206 66 hintmask 01011000
          242 466 -38 callsubr
        </CharString>
        <CharString name="four.numr">
          -212 300 46 70 46 71 -20 hstem
          194 66 vstem
          230 751 37 callgsubr
          4 47 29 callgsubr
        </CharString>
        <CharString name="four.osf">
          -31 -209 -21 230 54 -54 64 hstemhm
          316 79 hintmask 11010000
          357 0 callgsubr
        </CharString>
        <CharString name="four.sinf">
          -193 -100 78 callsubr
          hstemhm
          206 66 hintmask 01011000
          242 366 -38 callsubr
        </CharString>
        <CharString name="four.sups">
          -212 450 48 -4 -20 92 46 95 -20 hstemhm
          194 66 hintmask 10111000
          230 901 37 callgsubr
          hintmask 01111000
          4 47 rlineto
          hintmask 10111000
          29 callgsubr
        </CharString>
        <CharString name="four.tf">
          -50 -24 callgsubr
          206 54 hstemhm
          297 78 hintmask 10110000
          355 739 rmoveto
          -352 -485 43 -53 rlineto
          251 123 callsubr
          -100 -16 4 -50 rlineto
          0 114 5 20 vhcurveto
          hintmask 10110000
          79 50 -5 0 hvcurveto
          7 59 rlineto
          hintmask 01110000
          -80 7 rlineto
          hintmask 10110000
          -2 14 -5 50 42 vvcurveto
          34 90 67 vlineto
          -90 -6 1 164 -78 -27 -1 -142 -192 -3 183 280 rlineto
          14 23 121 131 0 vvcurveto
          endchar
        </CharString>
        <CharString name="four.tosf">
          -50 -209 -21 230 54 -54 64 hstemhm
          306 79 hintmask 11010000
          347 0 callgsubr
        </CharString>
        <CharString name="fraction">
          -500 721 -20 hstem
          -222 484 vstem
          212 721 90 callgsubr
          433 738 rlineto
          endchar
        </CharString>
        <CharString name="g">
          8 callgsubr
          hstemhm
          38 99 275 76 -68 56 hintmask 11011100
          -76 callgsubr
          hintmask 10111100
          93 callsubr
          hintmask 11011100
          -95 callsubr
          hintmask 11011010
          -56 callgsubr
          hintmask 11011100
          64 callsubr
          endchar
        </CharString>
        <CharString name="g.sups">
          -232 307 43 186 36 148 37 hstemhm
          22 70 -57 76 -61 56 105 77 -39 66 hintmask 11101010
          309 711 rmoveto
          -2 45 -78 -13 rlineto
          9 -19 -23 5 -25 hhcurveto
          -76 -51 -44 -67 -43 21 -33 35 -19 hvcurveto
          hintmask 11100110
          -28 -24 -13 -16 -8 vvcurveto
          -25 9 -15 20 -12 vhcurveto
          hintmask 11110001
          -33 -21 -24 -23 -13 vvcurveto
          -57 44 -30 87 90 72 52 66 30 -11 18 -19 7 vhcurveto
          hintmask 11100101
          -19 6 -39 5 -66 7 rrcurveto
          -42 5 -13 5 13 vvcurveto
          4 4 6 8 10 vhcurveto
          -3 13 14 -2 16 hhcurveto
          hintmask 11110010
          76 51 44 67 27 -7 21 -15 17 hvcurveto
          -156 -272 rmoveto
          10 -3 12 -2 15 -2 rrcurveto
          hintmask 11110001
          80 -11 rlineto
          16 -2 6 -8 -14 vvcurveto
          -29 -29 -19 -44 -56 -28 17 36 vhcurveto
          hintmask 11110010
          10 4 10 14 17 vhcurveto
          hintmask 11101010
          52 280 rmoveto
          33 16 -23 -49 -51 -16 -25 -34 -33 -17 24 49 51 17 24 34 hvcurveto
          endchar
        </CharString>
        <CharString name="gbreve">
          8 callgsubr
          42 56 hstemhm
          38 99 32 111 callsubr
          -35 76 -68 56 hintmask 1101111010000000
          -76 callgsubr
          hintmask 1011111010000000
          93 callsubr
          hintmask 1101111010000000
          -95 callsubr
          hintmask 1101111001000000
          -56 callgsubr
          hintmask 1101111010000000
          64 callsubr
          hintmask 1101111100000000
          84 182 -77 callgsubr
        </CharString>
        <CharString name="gcircumflex">
          8 callgsubr
          225 -20 hstemhm
          38 99 275 76 -68 56 hintmask 11011110
          -76 callgsubr
          hintmask 10111110
          93 callsubr
          hintmask 11011110
          -95 callsubr
          hintmask 11011101
          -56 callgsubr
          hintmask 11011110
          64 callsubr
          1 225 rmoveto
          -166 -169 29 callsubr
        </CharString>
        <CharString name="gcommaaccent">
          8 callgsubr
          hstemhm
          38 99 106 102 67 76 -68 56 hintmask 11011010
          -76 callgsubr
          hintmask 10111010
          93 callsubr
          hintmask 11011010
          -95 callsubr
          hintmask 11011001
          -56 callgsubr
          hintmask 11011010
          64 callsubr
          hintmask 11011110
          -64 -656 -85 callgsubr
        </CharString>
        <CharString name="gdieresis">
          8 callgsubr
          54 119 hstemhm
          38 99 -1 36 callgsubr
          -68 76 -68 56 hintmask 1101110010000000
          -76 callgsubr
          hintmask 1011110010000000
          93 callsubr
          hintmask 1101110010000000
          -95 callsubr
          hintmask 1101110001000000
          -56 callgsubr
          hintmask 1101110010000000
          64 callsubr
          hintmask 1101101100000000
          119 173 rmoveto
          -93 callgsubr
        </CharString>
        <CharString name="gdotaccent">
          8 callgsubr
          51 129 hstemhm
          38 99 113 118 44 76 -68 56 hintmask 1101110100000000
          -76 callgsubr
          hintmask 1011110100000000
          93 callsubr
          hintmask 1101110100000000
          -95 callsubr
          hintmask 1101110010000000
          -56 callgsubr
          hintmask 1101110100000000
          64 callsubr
          hintmask 1101111100000000
          2 180 -87 callgsubr
          endchar
        </CharString>
        <CharString name="germandbls">
          27 -12 56 -44 50 -50 147 -130 -21 482 62 hstemhm
          90 90 79 61 152 96 hintmask 10001111
          274 262 rmoveto
          165 -71 33 -23 -47 vvcurveto
          -49 -30 -28 -49 -27 -21 7 12 -15 vhcurveto
          hintmask 00101111
          -9 17 rlineto
          65 vlineto
          -56 4 rlineto
          hintmask 10001111
          -11 -123 rlineto
          0 52 -38 81 110 71 58 88 67 -46 42 -142 58 vhcurveto
          133 175 rlineto
          42 -68 -69 22 -71 hhcurveto
          -141 -74 -74 -137 hvcurveto
          hintmask 01001111
          -217 vlineto
          -17 -3 -33 -3 -12 vhcurveto
          hintmask 00011111
          91 callsubr
          62 4 31 vhcurveto
          hintmask 01001111
          62 hlineto
          -4 44 -1 62 27 vvcurveto
          197 vlineto
          96 42 52 77 45 30 -10 -26 34 vhcurveto
          endchar
        </CharString>
        <CharString name="grave">
          755 -20 hstem
          66 227 vstem
          293 605 -34 callgsubr
        </CharString>
        <CharString name="grave.cap">
          539 148 hstem
          51 259 vstem
          51 614 rmoveto
          -23 callgsubr
        </CharString>
        <CharString name="greater">
          0 6 -21 hstem
          102 356 vstem
          156 513 rmoveto
          -53 -53 253 -212 -254 -210 53 -53 303 262 rlineto
          endchar
        </CharString>
        <CharString name="greaterequal">
          72 callsubr
          -51 264 rmoveto
          -310 235 -46 -61 237 -174 -236 -174 45 -61 rlineto
          endchar
        </CharString>
        <CharString name="gtilde">
          8 callgsubr
          64 82 callgsubr
          38 99 275 76 -68 56 hintmask 1101011100000000
          -76 callgsubr
          hintmask 1011011100000000
          93 callsubr
          hintmask 1101011100000000
          -95 callsubr
          hintmask 1101011010000000
          -56 callgsubr
          hintmask 1101011100000000
          64 callsubr
          hintmask 1101101100000000
          128 183 -25 callsubr
          hintmask 1101011100000000
          -40 -75 -69 callsubr
          hintmask 1101101100000000
          40 74 -61 callgsubr
        </CharString>
        <CharString name="guillemotleft">
          -144 20 444 hstem
          25 349 67 callsubr
          10 -222 rmoveto
          150 -218 36 25 -104 193 104 193 -36 25 rlineto
          endchar
        </CharString>
        <CharString name="guillemotright">
          -145 19 444 hstem
          42 349 vstem
          391 77 callgsubr
          -10 222 rmoveto
          -150 218 -36 -25 104 -193 -104 -193 36 -25 rlineto
          endchar
        </CharString>
        <CharString name="guilsinglleft">
          -303 20 444 hstem
          25 190 67 callsubr
          endchar
        </CharString>
        <CharString name="guilsinglright">
          -303 19 444 hstem
          42 190 vstem
          232 77 callgsubr
          endchar
        </CharString>
        <CharString name="h">
          75 -24 callsubr
          242 50 191 125 callgsubr
          hintmask 10110110
          hintmask 10101110
          128 callsubr
          hintmask 10110110
          -23 -64 -4 callsubr
          hintmask 10101110
          57 -9 rlineto
          hintmask 10110110
          36 callsubr
          hintmask 10101110
          -22 -64 -84 callsubr
          hintmask 10110110
          57 57 callgsubr
          hintmask 10101110
          -300 vlineto
          hintmask 01110110
          39 callgsubr
          hintmask 10110110
          105 245 vlineto
          hintmask 01110110
          -128 vlineto
          hintmask 10110110
          -11 callsubr
          hintmask 01110110
          -64 5 rlineto
          -2 11 -4 63 callgsubr
          hintmask 10110110
          58 5 rlineto
          endchar
        </CharString>
        <CharString name="h.sups">
          -171 450 43 -8 8 213 51 -44 -20 208 10 hstemhm
          67 70 123 71 hintmask 10101110
          -38 callgsubr
          53 vlineto
          57 1 30 35 39 hhcurveto
          41 12 74 callgsubr
          hintmask 01101110
          -38 -8 rlineto
          hintmask 10101110
          106 callgsubr
          36 3 22 61 36 123 callgsubr
          42 -44 119 callgsubr
          75 vlineto
          76 -29 45 -78 -39 -28 -19 -25 -20 vhcurveto
          hintmask 10011110
          84 vlineto
          30 4 50 2 24 vhcurveto
          -13 11 -46 41 callgsubr
          endchar
        </CharString>
        <CharString name="hbar">
          75 -24 callsubr
          242 50 85 38 68 125 callgsubr
          hintmask 10111011
          hintmask 10110111
          128 callsubr
          hintmask 10111011
          -23 -64 -4 callsubr
          hintmask 10110111
          57 -9 rlineto
          hintmask 10111011
          1 -11 6 -33 -22 vvcurveto
          -245 hlineto
          24 4 32 2 10 vhcurveto
          58 5 -3 51 rlineto
          0 -51 -4 -71 vhcurveto
          hintmask 10110111
          -22 -64 -84 callsubr
          hintmask 10111011
          57 -9 rlineto
          1 -11 6 -33 -22 vvcurveto
          hintmask 10110111
          -69 hlineto
          hintmask 01111011
          -38 69 -263 vlineto
          39 callgsubr
          hintmask 10111011
          105 245 vlineto
          hintmask 01111011
          -128 vlineto
          hintmask 10111011
          -11 callsubr
          hintmask 01111011
          -64 -42 callsubr
          240 77 vlineto
          hintmask 10111011
          38 -77 vlineto
          hintmask 01111011
          24 4 32 2 10 vhcurveto
          hintmask 10111011
          58 5 rlineto
          -396 -195 rmoveto
          86 245 -83 vlineto
          endchar
        </CharString>
        <CharString name="hcircumflex">
          75 -24 callsubr
          242 50 191 49 -49 53 233 66 callgsubr
          245 87 hintmask 10110111
          hintmask 10101111
          128 callsubr
          hintmask 10110111
          -23 -64 -4 callsubr
          hintmask 10101111
          57 -9 rlineto
          hintmask 10110111
          36 callsubr
          hintmask 10101111
          -22 -64 -84 callsubr
          hintmask 10110111
          57 57 callgsubr
          hintmask 10101111
          -300 vlineto
          hintmask 01110111
          39 callgsubr
          hintmask 10110111
          105 245 vlineto
          hintmask 01110111
          -128 vlineto
          hintmask 10110111
          -11 callsubr
          hintmask 01110111
          -64 5 rlineto
          -2 11 -4 63 callgsubr
          hintmask 10110111
          58 5 rlineto
          -274 283 rmoveto
          hintmask 01110111
          -166 -169 rlineto
          hintmask 10110111
          29 callsubr
        </CharString>
        <CharString name="hungarumlaut">
          765 -20 hstem
          -17 442 vstem
          376 765 -27 callsubr
          -250 62 -27 callsubr
          endchar
        </CharString>
        <CharString name="hungarumlaut.cap">
          523 179 hstem
          -23 466 vstem
          188 702 rmoveto
          -211 -136 -11 callgsubr
        </CharString>
        <CharString name="hyphen">
          -278 216 75 hstemhm
          30 222 -221 218 hintmask 11000000
          hintmask 10100000
          32 216 rmoveto
          215 hlineto
          5 75 rlineto
          -222 hlineto
          endchar
        </CharString>
        <CharString name="i">
          -53 callgsubr
        </CharString>
        <CharString name="i.sups">
          -355 450 43 223 -20 45 10 5 -20 69 90 hstemhm
          64 87 -78 70 hintmask 11011010
          192 489 rmoveto
          -43 41 callsubr
          76 vlineto
          hintmask 11101010
          31 6 73 0 vhcurveto
          hintmask 11011010
          -13 11 -46 41 callgsubr
          -4 -40 86 callsubr
          -44 -8 106 callgsubr
          43 3 22 61 37 -3 0 vhcurveto
          hintmask 11011100
          -82 448 rmoveto
          -28 -15 -19 -26 -27 15 -18 28 28 16 18 27 28 -17 17 -27 hvcurveto
          endchar
        </CharString>
        <CharString name="iacute">
          -32 callgsubr
          242 -20 hstemhm
          108 88 hintmask 10101100
          hintmask 10011100
          256 -92 callsubr
          -24 273 -83 callgsubr
          endchar
        </CharString>
        <CharString name="ibreve">
          -32 callgsubr
          69 56 hstemhm
          17 56 39 88 39 56 cntrmask 00000111
          hintmask 10101111
          hintmask 10011111
          260 533 rmoveto
          0 -51 -4 -70 vhcurveto
          hintmask 10101111
          -23 -64 -84 callsubr
          hintmask 10011111
          57 -9 rlineto
          hintmask 01101111
          -94 callgsubr
          hintmask 10101111
          -63 -42 callsubr
          hintmask 01101111
          272 vlineto
          hintmask 10101111
          -3 callsubr
          57 5 rlineto
          -24 240 -77 callgsubr
        </CharString>
        <CharString name="icircumflex">
          -32 callgsubr
          252 -20 hstemhm
          104 88 hintmask 10101100
          hintmask 10011100
          252 -92 callsubr
          -107 283 rmoveto
          -166 -169 29 callsubr
        </CharString>
        <CharString name="idieresis">
          -32 callgsubr
          81 119 hstemhm
          14 108 -10 88 -10 108 -41 callsubr
          -19 231 52 callsubr
          hintmask 10101101
          122 callgsubr
          67 callgsubr
          endchar
        </CharString>
        <CharString name="idotaccent">
          -32 callgsubr
          78 129 hstemhm
          97 118 -103 88 -41 callsubr
          -107 238 rmoveto
          -38 -21 -27 -38 62 callgsubr
          38 21 26 38 hvcurveto
          hintmask 10101100
          41 -22 24 -37 vhcurveto
          endchar
        </CharString>
        <CharString name="igrave">
          -32 callgsubr
          242 -20 hstemhm
          97 88 hintmask 10101100
          hintmask 10011100
          245 -92 callsubr
          -12 123 -34 callgsubr
        </CharString>
        <CharString name="ij">
          -34 -24 callsubr
          485 48 4 -20 hstemhm
          112 88 142 87 hintmask 10101100
          hintmask 10011100
          489 533 rmoveto
          0 -50 -4 -71 vhcurveto
          hintmask 10101100
          -229 hlineto
          -23 -64 -84 callsubr
          hintmask 10011100
          57 -9 rlineto
          hintmask 01101100
          2 -12 5 -33 54 callsubr
          -5 -37 -2 -10 -91 callsubr
          hintmask 10101100
          97 callsubr
          9 -4 40 34 vvcurveto
          hintmask 01101100
          272 vlineto
          hintmask 10101100
          25 3 36 3 11 vhcurveto
          64 8 65 -8 rlineto
          2 -10 5 -35 -22 vvcurveto
          -402 vlineto
          -15 -62 -124 0 vhcurveto
          32 -19 rlineto
          49 52 68 71 22 vvcurveto
          410 vlineto
          25 5 38 1 9 vhcurveto
          58 5 rlineto
          endchar
        </CharString>
        <CharString name="imacron">
          -32 callgsubr
          83 53 hstemhm
          80 88 hintmask 10101100
          hintmask 10011100
          228 -92 callsubr
          17 114 rmoveto
          5 53 rlineto
          -258 -53 hlineto
          endchar
        </CharString>
        <CharString name="infinity">
          190 138 87 221 87 -86 87 hstemhm
          40 47 576 47 hintmask 11011000
          201 138 rmoveto
          93 44 55 67 37 hvcurveto
          -54 33 59 -69 80 hhcurveto
          105 58 96 102 104 -59 94 -102 -94 -44 -55 -67 -37 hvcurveto
          hintmask 10111000
          54 -33 -59 69 -79 hhcurveto
          -105 -58 -96 -102 hvcurveto
          hintmask 11011000
          -104 59 -94 102 vhcurveto
          hintmask 10111000
          2 309 rmoveto
          68 51 -48 -34 28 hvcurveto
          -1 vlineto
          -74 -38 -36 -65 -77 hhcurveto
          -61 -51 53 58 63 50 48 66 hvcurveto
          197 -140 rmoveto
          hintmask 11011000
          74 39 35 65 77 hhcurveto
          61 51 -53 -58 -63 -50 -48 -66 -69 -51 47 34 -28 hvcurveto
          hintmask 10111000
          1 1 0 1 vvcurveto
          endchar
        </CharString>
        <CharString name="integral">
          0 -235 55 840 55 -9 -20 hstemhm
          238 71 -28 71 hintmask 11010000
          309 544 rmoveto
          63 17 53 69 17 13 -3 -4 11 vhcurveto
          hintmask 10110000
          11 53 rlineto
          hintmask 11010000
          6 -16 -17 3 -19 hhcurveto
          -103 -54 -70 -101 hvcurveto
          -170 43 -298 -140 vvcurveto
          hintmask 11001000
          -63 -17 -53 -69 -17 -13 3 4 -11 vhcurveto
          -11 -53 rlineto
          -6 16 17 -3 19 hhcurveto
          103 54 70 101 hvcurveto
          170 -43 298 140 vvcurveto
          endchar
        </CharString>
        <CharString name="iogonek">
          -249 -197 42 151 51 -26 -21 479 49 5 -20 hstemhm
          11 64 37 88 hintmask 11010110
          84 16 rmoveto
          -50 -59 -23 -21 -44 vvcurveto
          -60 41 -29 57 35 30 14 8 16 vhcurveto
          -14 33 rlineto
          -9 -20 -16 -4 -14 hhcurveto
          -35 -16 24 29 hvcurveto
          hintmask 10110110
          42 26 52 64 8 vhcurveto
          hintmask 11010110
          57 -1 42 -3 0 vvcurveto
          5 49 -63 5 rlineto
          -2 11 -4 63 callgsubr
          57 5 rlineto
          hintmask 11001110
          -3 51 rlineto
          0 -51 -4 -70 vhcurveto
          hintmask 11010110
          -23 -64 -84 callsubr
          hintmask 11001110
          57 -9 rlineto
          hintmask 11010110
          2 -11 5 -34 -22 vvcurveto
          -235 vlineto
          -108 -3 -22 -25 -29 vhcurveto
          endchar
        </CharString>
        <CharString name="itilde">
          -32 callgsubr
          91 82 callgsubr
          87 88 hintmask 10100110
          hintmask 10010110
          235 533 rmoveto
          0 -51 -4 -70 vhcurveto
          hintmask 10100110
          -23 -64 -84 callsubr
          hintmask 10010110
          57 -9 rlineto
          hintmask 01100110
          -94 callgsubr
          hintmask 10100110
          -63 -42 callsubr
          hintmask 01100110
          272 vlineto
          hintmask 10101010
          -3 callsubr
          57 5 rlineto
          -5 241 -25 callsubr
          -35 -46 41 -34 -66 callsubr
          hintmask 10100110
          35 44 -41 36 hhcurveto
          39 43 98 0 hvcurveto
          endchar
        </CharString>
        <CharString name="j">
          -29 callgsubr
        </CharString>
        <CharString name="j.sups">
          -369 716 -20 45 10 5 -20 69 90 hstemhm
          51 87 -73 71 hintmask 10110100
          13 716 rmoveto
          103 callsubr
          -192 vlineto
          -25 -46 -117 0 vhcurveto
          26 -14 rlineto
          0 91 112 25 vvcurveto
          193 vlineto
          hintmask 11010100
          31 6 73 0 vhcurveto
          hintmask 10110100
          -13 11 -46 41 callgsubr
          hintmask 10111000
          78 139 rmoveto
          -28 -16 -19 -26 -27 16 -18 28 28 15 18 27 28 -16 17 -27 hvcurveto
          endchar
        </CharString>
        <CharString name="jcircumflex">
          -273 479 49 5 -20 252 -20 hstemhm
          95 87 hintmask 10110000
          246 482 rmoveto
          hintmask 01110000
          -4 51 rlineto
          0 -50 -4 -71 vhcurveto
          hintmask 10110000
          -23 -63 -84 callsubr
          hintmask 01110000
          57 -9 rlineto
          hintmask 10110000
          1 -10 6 -35 -22 vvcurveto
          -402 vlineto
          -15 -62 -124 0 vhcurveto
          32 -19 rlineto
          49 52 68 74 22 vvcurveto
          407 vlineto
          25 4 38 2 9 vhcurveto
          -53 288 rmoveto
          -166 -169 29 callsubr
        </CharString>
        <CharString name="k">
          16 -10 callsubr
          hstemhm
          108 87 137 192 hintmask 10101100
          1 callgsubr
          hintmask 10011100
          -3 51 rlineto
          0 -39 -4 -70 vhcurveto
          hintmask 10101100
          -23 -57 -84 callsubr
          hintmask 01011100
          -36 callsubr
          hintmask 10101100
          0 -51 -4 -70 -23 -63 4 0 vhcurveto
          hintmask 01011100
          -3 -47 56 57 callgsubr
          hintmask 10101100
          -300 vlineto
          50 callsubr
          hintmask 10011100
          -58 -10 rlineto
          hintmask 01101100
          -8 callsubr
          hintmask 10101100
          57 5 rlineto
          endchar
        </CharString>
        <CharString name="k.sups">
          -184 450 43 219 38 -35 -20 206 10 hstemhm
          67 70 66 155 hintmask 10111000
          -38 callgsubr
          236 vlineto
          30 4 50 2 24 vhcurveto
          -13 11 -46 41 callgsubr
          hintmask 11011100
          215 -205 rmoveto
          -89 -99 70 -94 21 -29 -14 -5 12 -35 62 1 rlineto
          41 33 -3 0 hvcurveto
          4 42 -38 4 -20 18 -27 23 -5 7 rlinecurve
          -63 80 45 52 9 11 27 16 19 11 rlinecurve
          39 3 rlineto
          40 vlineto
          0 -39 -3 -36 -30 -49 3 0 vhcurveto
          -3 -39 rlineto
          endchar
        </CharString>
        <CharString name="kcommaaccent">
          16 -10 callsubr
          hstemhm
          108 87 41 102 -6 192 hintmask 10101010
          1 callgsubr
          hintmask 10011010
          -3 51 rlineto
          0 -39 -4 -70 vhcurveto
          hintmask 10101010
          -23 -57 -84 callsubr
          hintmask 01011010
          -36 callsubr
          hintmask 10101010
          0 -51 -4 -70 -23 -63 4 0 vhcurveto
          hintmask 01011010
          -3 -47 56 57 callgsubr
          hintmask 10101010
          -300 vlineto
          50 callsubr
          hintmask 10011010
          -58 -10 rlineto
          hintmask 01101010
          -8 callsubr
          hintmask 10101010
          57 5 rlineto
          -22 -598 rmoveto
          hintmask 01101010
          13 callsubr
          hintmask 10101100
          45 callsubr
          37 -12 rlineto
          0 47 80 55 vvcurveto
          42 -19 24 -33 -24 -26 -19 -39 vhcurveto
          endchar
        </CharString>
        <CharString name="kgreenlandic">
          16 -10 callsubr
          hstemhm
          108 87 137 192 hintmask 10101100
          1 callgsubr
          hintmask 10011100
          -3 51 rlineto
          0 -39 -4 -70 vhcurveto
          hintmask 10101100
          -23 -57 -84 callsubr
          hintmask 01011100
          -36 callsubr
          hintmask 10101100
          0 -51 -4 -70 -23 -63 4 0 vhcurveto
          hintmask 01011100
          -3 -47 56 57 callgsubr
          hintmask 10101100
          -300 vlineto
          50 callsubr
          hintmask 10011100
          -58 -10 rlineto
          hintmask 01101100
          -8 callsubr
          hintmask 10101100
          57 5 rlineto
          endchar
        </CharString>
        <CharString name="l">
          -117 0 51 -33 -21 482 40 callsubr
          184 41 hintmask 10101000
          hintmask 10011000
          104 callgsubr
          -71 vhcurveto
          hintmask 10101000
          -22 -64 -84 callsubr
          hintmask 10011000
          57 -9 rlineto
          hintmask 01101000
          -31 callsubr
          hintmask 10101100
          20 callsubr
          hintmask 01101100
          -47 4 rlineto
          hintmask 10101100
          -72 callsubr
          endchar
        </CharString>
        <CharString name="l.sups">
          -358 450 43 408 10 hstem
          67 70 vstem
          -38 callgsubr
          236 vlineto
          30 4 50 2 24 vhcurveto
          -13 11 -46 41 callgsubr
          endchar
        </CharString>
        <CharString name="lacute">
          -117 0 51 -33 -21 482 49 5 -20 242 -20 hstemhm
          97 87 184 41 hintmask 10101100
          hintmask 10011100
          245 533 rmoveto
          0 -51 -4 -71 vhcurveto
          hintmask 10101100
          -22 -64 -84 callsubr
          hintmask 10011100
          57 -9 rlineto
          hintmask 01101100
          -31 callsubr
          hintmask 10101110
          20 callsubr
          hintmask 01101110
          -47 4 rlineto
          hintmask 10101110
          -72 callsubr
          -31 273 -83 callgsubr
          endchar
        </CharString>
        <CharString name="lcaron">
          -117 0 51 -33 -21 222 241 19 40 callsubr
          104 64 16 41 hintmask 10010110
          hintmask 10101110
          281 461 rmoveto
          12 callsubr
          -114 72 rmoveto
          0 -51 -4 -71 vhcurveto
          hintmask 10010110
          -22 -64 -84 callsubr
          hintmask 10001110
          57 -9 rlineto
          hintmask 01010110
          -31 callsubr
          hintmask 10010111
          20 callsubr
          hintmask 01010111
          -47 4 rlineto
          hintmask 10010111
          -72 callsubr
          endchar
        </CharString>
        <CharString name="lcommaaccent">
          -117 0 51 -33 -21 482 40 callsubr
          -2 102 84 41 hintmask 10101000
          hintmask 10011000
          104 callgsubr
          -71 vhcurveto
          hintmask 10101000
          -22 -64 -84 callsubr
          hintmask 10011000
          57 -9 rlineto
          hintmask 01101000
          -31 callsubr
          hintmask 10101010
          20 callsubr
          hintmask 01101010
          -47 4 rlineto
          hintmask 10101010
          -72 callsubr
          -66 -598 43 callgsubr
          hintmask 10100100
          37 -12 rlineto
          0 47 80 55 vvcurveto
          42 -19 24 -33 -24 -26 -19 -39 vhcurveto
          endchar
        </CharString>
        <CharString name="ldot">
          -117 0 51 -33 -21 238 139 105 40 callsubr
          60 128 -4 41 hintmask 10110110
          319 374 -13 callsubr
          hintmask 10101110
          -63 159 rmoveto
          0 -51 -4 -71 vhcurveto
          hintmask 10110110
          -22 -64 -84 callsubr
          hintmask 10101110
          57 -9 rlineto
          hintmask 01110110
          -31 callsubr
          hintmask 10110101
          20 callsubr
          hintmask 01110101
          -47 4 rlineto
          hintmask 10110101
          -72 callsubr
          endchar
        </CharString>
        <CharString name="less">
          0 6 -21 hstem
          102 356 vstem
          102 247 rmoveto
          303 -262 53 53 -254 210 253 212 -53 53 rlineto
          endchar
        </CharString>
        <CharString name="lessequal">
          72 callsubr
          -407 264 rmoveto
          310 -235 46 61 -237 174 236 174 -45 61 rlineto
          endchar
        </CharString>
        <CharString name="logicalnot">
          0 238 69 hstem
          440 70 vstem
          55 307 rmoveto
          -71 vlineto
          386 4 -2 -171 rlineto
          71 238 hlineto
          endchar
        </CharString>
        <CharString name="lozenge">
          0 2 568 hstem
          18 524 vstem
          280 570 rmoveto
          -262 -286 262 -282 262 282 rlineto
          -262 -174 rmoveto
          -163 175 163 177 163 -177 rlineto
          endchar
        </CharString>
        <CharString name="lslash">
          -117 0 51 -33 -21 482 40 callsubr
          184 41 hintmask 10101000
          hintmask 10011000
          104 callgsubr
          -71 vhcurveto
          hintmask 10101000
          -22 -64 -84 callsubr
          hintmask 10011000
          57 -9 rlineto
          hintmask 01101000
          1 -11 6 -34 -22 vvcurveto
          -108 vlineto
          -77 -27 14 -37 63 22 rlineto
          -150 -68 callsubr
          176 hlineto
          hintmask 10101100
          20 callsubr
          hintmask 01101100
          -47 4 rlineto
          hintmask 10101100
          -2 -12 -6 -24 -3 -12 -1 -5 -7 -12 -8 -12 rrcurveto
          -3 -16 -26 -4 -23 hhcurveto
          -86 hlineto
          -2 13 -4 38 31 vvcurveto
          158 vlineto
          128 46 -13 36 -115 -41 rlineto
          73 59 callgsubr
          58 5 rlineto
          endchar
        </CharString>
        <CharString name="m">
          195 -24 callsubr
          486 46 -14 15 4 -20 hstemhm
          124 43 401 60 hintmask 10100100
          532 529 rmoveto
          hintmask 10010100
          -15 -15 rlineto
          0 -31 -91 -7 -17 vhcurveto
          -100 -261 -96 253 rlineto
          -8 22 -31 94 0 vvcurveto
          hintmask 10100100
          -15 15 rlineto
          -65 hlineto
          -22 -78 -30 callsubr
          hintmask 10001100
          -4 -46 rlineto
          hintmask 01100100
          61 -9 rlineto
          1 -12 2 -28 -11 vvcurveto
          -21 -328 -2 -12 -7 -26 -3 -11 rlinecurve
          -58 -11 4 -43 rlineto
          0 61 4 20 69 38 -4 0 vhcurveto
          hintmask 10100100
          6 49 -60 5 rlineto
          hintmask 01100100
          -1 14 -3 38 20 vvcurveto
          hintmask 10100110
          18 297 160 -419 rlineto
          43 hlineto
          161 419 19 -297 rlineto
          -20 -3 -39 -1 -13 vhcurveto
          -58 -11 4 -43 rlineto
          hintmask 01100110
          0 68 4 21 69 53 -4 0 vhcurveto
          5 49 -60 5 rlineto
          hintmask 10100110
          -3 11 -7 26 -2 12 -26 328 rcurveline
          hintmask 01100110
          11 1 29 2 11 vhcurveto
          hintmask 10100110
          58 6 -3 49 rlineto
          0 -60 -4 -55 vhcurveto
          endchar
        </CharString>
        <CharString name="m.sups">
          9 450 43 -8 8 0 263 -50 51 -41 -20 hstemhm
          73 70 114 70 113 71 hintmask 10010111
          230 757 rmoveto
          -45 -30 -25 -33 -21 hvcurveto
          -5 42 -13 11 -26 41 callgsubr
          hintmask 10001111
          -4 -40 rlineto
          hintmask 10010111
          26 callsubr
          57 vlineto
          54 2 28 34 36 hhcurveto
          37 11 -35 -40 hvcurveto
          -88 vlineto
          -10 -3 -22 -2 -18 vhcurveto
          hintmask 01010111
          -38 -8 rlineto
          hintmask 10010111
          61 callsubr
          53 vlineto
          57 1 28 35 37 hhcurveto
          36 11 74 callgsubr
          hintmask 01010111
          -38 -8 rlineto
          hintmask 10010111
          106 callgsubr
          36 3 22 61 36 123 callgsubr
          42 -44 4 rlineto
          hintmask 00100111
          121 callgsubr
          75 vlineto
          hintmask 10010111
          76 -27 45 -70 -44 -31 -24 -33 -21 vhcurveto
          37 -13 -28 20 -47 hhcurveto
          endchar
        </CharString>
        <CharString name="macron">
          596 53 hstem
          19 322 vstem
          336 596 22 callsubr
        </CharString>
        <CharString name="macron.cap">
          576 53 hstem
          19 322 vstem
          336 576 22 callsubr
        </CharString>
        <CharString name="minus">
          0 220 73 hstem
          53 455 vstem
          508 223 rmoveto
          71 -455 -76 vlineto
          endchar
        </CharString>
        <CharString name="mu">
          20 -10 64 -48 -21 509 -20 23 -20 hstemhm
          95 81 227 81 hintmask 10011100
          396 491 rmoveto
          7 -134 rlineto
          -147 vlineto
          -80 -44 -76 -82 -74 -27 55 74 vhcurveto
          144 96 callgsubr
          vhcurveto
          hintmask 10101100
          -7 -30 3 0 hvcurveto
          -6 -6 rlineto
          hintmask 10011100
          7 -134 rlineto
          -404 vlineto
          -17 -4 -112 1 -34 vhcurveto
          9 -8 rlineto
          0 33 4 25 vhcurveto
          22 hlineto
          9 8 rlineto
          0 -19 109 -1 20 vhcurveto
          -5 110 rlineto
          -26 23 33 -17 43 hhcurveto
          84 40 45 33 20 hvcurveto
          18 -54 56 -12 47 -17 19 42 rcurveline
          hintmask 01011100
          -54 30 -10 19 61 vvcurveto
          190 96 callgsubr
          -11 -26 3 0 vhcurveto
          endchar
        </CharString>
        <CharString name="multiply">
          -22 40 417 hstem
          60 418 vstem
          268 299 rmoveto
          -158 156 -50 -50 157 -157 -155 -158 50 -50 157 156 156 -155 53 53 -157 154 156 156 -53 53 rlineto
          endchar
        </CharString>
        <CharString name="n">
          62 -73 callgsubr
          2 callgsubr
          hintmask 0010100110000000
          24 7 39 3 13 vhcurveto
          58 9 rlineto
          endchar
        </CharString>
        <CharString name="n.sups">
          -165 450 43 -8 8 213 51 -41 -20 hstemhm
          73 70 123 71 hintmask 10101100
          hintmask 10011100
          20 716 rmoveto
          hintmask 10101100
          26 callsubr
          53 vlineto
          57 1 30 35 39 hhcurveto
          41 12 74 callgsubr
          hintmask 01101100
          -38 -8 rlineto
          hintmask 10101100
          61 callsubr
          75 vlineto
          76 -28 45 -76 -46 -31 -25 -33 -22 vhcurveto
          -5 42 -13 11 -26 41 callgsubr
          endchar
        </CharString>
        <CharString name="nacute">
          23 callgsubr
          226 -80 callsubr
          -206 270 -83 callgsubr
          endchar
        </CharString>
</ttFont>
